<svg width="306" height="87" viewBox="0 0 306 87" fill="none" xmlns="http://www.w3.org/2000/svg">
<mask id="mask0" mask-type="alpha" maskUnits="userSpaceOnUse" x="0" y="0" width="87" height="88">
<path d="M0 0.53125H86.3627V87.0008H0V0.53125Z" fill="white"/>
</mask>
<g mask="url(#mask0)">
<path fill-rule="evenodd" clip-rule="evenodd" d="M79.2957 62.3575C70.4471 79.5737 50.5496 88.1888 31.9531 82.8578C29.4 82.1243 26.9135 81.1398 24.5588 79.9317C23.0995 79.1794 21.6791 78.3305 20.2626 77.366C19.6648 76.9239 19.0896 76.4605 18.5282 75.9846C18.3361 75.82 18.1527 75.648 17.9644 75.481C17.6039 75.1595 17.246 74.8342 16.9007 74.4976C16.6909 74.2929 16.4875 74.0832 16.2841 73.8735C15.9751 73.557 15.6725 73.2343 15.3773 72.9065C15.1777 72.683 14.9792 72.4582 14.7858 72.2296C14.5008 71.8918 14.2245 71.5477 13.9545 71.2011C13.7761 70.9738 13.5966 70.7477 13.4245 70.5166C13.1344 70.1236 12.8594 69.7192 12.5869 69.3135C12.4563 69.1201 12.3181 68.9318 12.1925 68.7346C11.8133 68.1419 11.4516 67.5378 11.1113 66.9224C11.0058 66.7303 10.9116 66.5319 10.8086 66.3372C10.5763 65.8964 10.3477 65.4531 10.1355 65.0023C10.0137 64.7423 9.90315 64.4798 9.78761 64.2174C9.61305 63.8193 9.44226 63.4199 9.28402 63.0155C9.17476 62.7355 9.07053 62.4542 8.9688 62.1716C8.82438 61.7697 8.6875 61.3653 8.55815 60.9585C8.46898 60.6759 8.37982 60.3933 8.29819 60.1095C8.1726 59.675 8.06209 59.2367 7.95534 58.7984C7.8913 58.5385 7.82222 58.2798 7.76571 58.0185C7.63887 57.4346 7.53087 56.8456 7.43543 56.2541C7.41659 56.1348 7.38896 56.018 7.37138 55.8987C7.26589 55.1954 7.18803 54.4871 7.129 53.7763C7.10765 53.5327 7.10137 53.2878 7.0863 53.0442C7.05742 52.5632 7.0323 52.0809 7.02477 51.5974C7.01974 51.3136 7.02477 51.0285 7.02728 50.7447C7.02979 50.5011 7.04109 50.2562 7.04988 50.0126C7.05742 50.0327 7.06872 50.0528 7.07751 50.0729C6.30141 48.2017 5.676 46.2539 5.2239 44.2407L5.16864 43.9871C5.03552 44.6401 4.91747 45.2944 4.82203 45.9499C4.78812 46.1772 4.76049 46.4045 4.73161 46.6319C4.65877 47.2033 4.601 47.7734 4.55579 48.3448C4.54072 48.552 4.51937 48.758 4.50681 48.964C4.46286 49.7087 4.439 50.4509 4.44151 51.1918C4.44277 51.3488 4.45156 51.5058 4.45407 51.6615C4.46412 52.2693 4.49049 52.8746 4.53193 53.4787C4.547 53.7035 4.56458 53.9283 4.58468 54.1531C4.63993 54.7772 4.71026 55.4001 4.79942 56.018C4.81701 56.1448 4.82956 56.2717 4.8484 56.3973C4.94636 57.0402 5.06064 57.6795 5.19376 58.3149C1.18889 47.8387 1.53299 35.8015 6.98458 25.1922C10.1455 19.0486 14.8411 13.7854 20.564 9.97143C23.7073 7.87921 27.1069 6.23406 30.6358 5.09502C31.2976 4.90538 31.9632 4.74464 32.63 4.59645C32.8134 4.55626 32.998 4.51607 33.1826 4.4784C33.803 4.35156 34.4259 4.23853 35.05 4.14811C35.1015 4.14058 35.1543 4.13053 35.207 4.123C35.8701 4.03006 36.5357 3.96476 37.2013 3.91202C37.3859 3.8982 37.5705 3.88564 37.7551 3.87434C38.3742 3.83667 38.9921 3.81155 39.61 3.80904C39.6715 3.80904 39.7331 3.80527 39.7946 3.80527C40.3723 3.80653 40.9512 3.82536 41.5276 3.85676C41.7123 3.86681 41.8969 3.88313 42.0815 3.89695C42.4859 3.92583 42.8902 3.95974 43.2934 4.00369C43.5031 4.02755 43.7128 4.05267 43.9225 4.0803C44.3169 4.13053 44.7099 4.18956 45.103 4.25612C45.2952 4.28751 45.4873 4.31765 45.6782 4.35282C46.2044 4.44951 46.7293 4.55877 47.2505 4.6831C47.2982 4.6944 47.3472 4.70319 47.3949 4.7145C47.9626 4.85138 48.5264 5.00836 49.0865 5.17539C49.2611 5.22813 49.4344 5.28716 49.6077 5.34242C50.0008 5.46674 50.3926 5.59861 50.7807 5.738C50.9766 5.80959 51.1712 5.88117 51.3659 5.95652C51.7502 6.10345 52.1319 6.25918 52.5112 6.42118C52.6833 6.49402 52.8566 6.56435 53.0286 6.64095C53.5699 6.88333 54.1086 7.13575 54.6398 7.40952C56.4106 8.31875 58.1587 9.44649 59.8428 10.7588C60.4117 11.2022 60.9592 11.6681 61.493 12.1465C61.665 12.2998 61.827 12.4618 61.9953 12.6187C62.3519 12.9528 62.7048 13.2906 63.0452 13.6385C63.231 13.8294 63.4106 14.024 63.5915 14.2187C63.9004 14.5515 64.2031 14.8893 64.4982 15.2347C64.6727 15.4394 64.846 15.6453 65.0143 15.8538C65.3082 16.2155 65.592 16.5847 65.8695 16.9589C66.0152 17.1561 66.1647 17.3495 66.3066 17.5492C66.6318 18.0101 66.9433 18.481 67.2447 18.957C67.32 19.0763 67.4017 19.1905 67.4758 19.3111C67.845 19.9114 68.1928 20.523 68.5231 21.1459C68.6098 21.3079 68.6864 21.4762 68.7693 21.6407C69.0054 22.1041 69.2339 22.5713 69.4474 23.0447C69.5504 23.272 69.6459 23.5031 69.7426 23.7342C69.9221 24.1574 70.0942 24.5831 70.2562 25.0126C70.3479 25.2587 70.437 25.5049 70.5237 25.7523C70.6744 26.1868 70.815 26.6238 70.9482 27.0634C71.0197 27.3033 71.0951 27.5406 71.1616 27.7817C71.2985 28.2753 71.4191 28.7726 71.5334 29.2724C71.5773 29.4608 71.6276 29.6479 71.6665 29.8375C71.8122 30.5282 71.9378 31.224 72.0382 31.9235C72.0533 32.0265 72.0608 32.1307 72.0746 32.2349C72.1538 32.8289 72.2191 33.4267 72.2668 34.0258C72.2856 34.2644 72.2944 34.5055 72.307 34.7441C72.3333 35.2138 72.3534 35.6822 72.3597 36.1531C72.3635 36.4231 72.361 36.6944 72.3585 36.9657C72.3559 37.1716 72.3446 37.3788 72.3371 37.5848C72.3271 37.5597 72.3145 37.5371 72.3032 37.512C73.0843 39.3907 73.7135 41.3473 74.1681 43.3692L74.2234 43.6229C76.9058 30.5822 71.9076 16.9162 61.4251 8.72815C60.9743 8.37652 60.5184 8.0387 60.0588 7.71218C60.0123 7.67827 59.9633 7.64813 59.9156 7.61548C59.5025 7.32413 59.0868 7.04156 58.6673 6.77156C58.6121 6.73514 58.5555 6.70374 58.499 6.66858C58.0871 6.40611 57.674 6.15243 57.2583 5.91131C57.1879 5.87112 57.1164 5.8347 57.046 5.79452C56.6731 5.58228 56.3001 5.37256 55.9258 5.1779C57.9 5.83596 59.8378 6.65351 61.724 7.62051C71.394 12.5924 78.5447 21.0341 81.8551 31.3923C83.0017 34.9676 83.6447 38.6912 83.7678 42.4562C83.9988 49.3357 82.4516 56.2164 79.2957 62.3575ZM86.3397 42.3708C86.2066 38.3672 85.5234 34.41 84.3078 30.6086C80.7851 19.5937 73.1835 10.6169 62.8995 5.33362C52.6217 0.0503148 40.8947 -0.911657 29.8848 2.63608C26.0909 3.85676 22.4766 5.60489 19.1373 7.83149C13.0503 11.8866 8.05832 17.4839 4.69896 24.0155C-5.25481 43.3843 0.797069 67.2213 18.7756 79.4632C20.3203 80.5169 21.8273 81.4186 23.3833 82.2173C25.8849 83.5033 28.5285 84.5506 31.2436 85.3305C35.1731 86.4582 39.1554 87.0008 43.0949 87.0008C58.9587 87.0008 74.0451 78.1999 81.5813 63.5329C84.9382 57.0038 86.5846 49.6873 86.3397 42.3708Z" fill="#3DBBE0"/>
</g>
<path fill-rule="evenodd" clip-rule="evenodd" d="M10.5995 36.1146C13.0735 31.3048 16.6225 27.2685 21.0116 24.2369C22.4747 23.226 24.0307 22.3268 25.6708 21.5482C30.3325 19.3354 35.3068 18.2692 40.2548 18.3395C43.9658 18.3935 47.6618 19.088 51.2007 20.4192C52.3799 20.8625 53.5416 21.3774 54.6819 21.9626C63.2505 26.3668 69.4016 34.2635 71.5918 43.6547C70.9689 46.4527 70.027 49.0887 68.7912 51.4924C65.6529 57.597 60.8016 62.3516 55.0775 65.4008C53.4424 66.2711 51.7357 67.0032 49.9775 67.5872C47.3403 68.4625 44.5862 69.005 41.7832 69.1884C40.8476 69.2487 39.9082 69.27 38.9651 69.2487C38.0219 69.2286 37.075 69.167 36.1281 69.0628C35.1812 68.9598 34.2331 68.8142 33.2874 68.6245C32.3418 68.4349 31.3974 68.2026 30.4568 67.9263C28.4148 67.3235 26.4808 66.5549 24.7088 65.6444C16.139 61.2402 9.98913 53.3447 7.79895 43.9536C8.42184 41.1543 9.36372 38.5196 10.5995 36.1146ZM8.42938 52.9567C8.86013 53.7767 9.32228 54.578 9.81457 55.3591C9.89494 55.4885 9.98034 55.6153 10.0632 55.7434C10.5568 56.5057 11.0742 57.2517 11.6242 57.9725C11.6468 58.0026 11.6669 58.034 11.6895 58.0629C12.2509 58.7926 12.8487 59.4933 13.4653 60.1778C13.5909 60.3172 13.7177 60.4565 13.8458 60.5947C14.4624 61.2565 15.0991 61.897 15.7647 62.5098C15.8627 62.599 15.9644 62.6832 16.0624 62.7723C16.6802 63.3274 17.3207 63.8611 17.9788 64.3735C18.1069 64.4727 18.2312 64.5757 18.3605 64.6737C19.0776 65.2174 19.8211 65.7298 20.5834 66.2196C20.7504 66.3263 20.9199 66.4306 21.0895 66.5361C21.8844 67.0271 22.6932 67.4993 23.5308 67.93C23.5321 67.93 23.5321 67.93 23.5333 67.9313C25.4472 68.9159 27.5332 69.7447 29.7284 70.3927C30.4681 70.6113 31.209 70.7946 31.9525 70.9629C32.1007 70.9955 32.2501 71.0307 32.3996 71.0621C33.1242 71.2153 33.8488 71.3472 34.5747 71.4539C34.6927 71.4715 34.812 71.4853 34.9313 71.5016C35.6384 71.5971 36.3454 71.675 37.0524 71.7277C37.114 71.7327 37.1755 71.7403 37.237 71.744C37.9855 71.7968 38.7328 71.8194 39.4775 71.8231C39.6068 71.8241 39.7362 71.8241 39.8655 71.8231C40.6027 71.8194 41.3374 71.798 42.0695 71.7478C42.0959 71.7453 42.1235 71.7428 42.1499 71.7403C42.8682 71.69 43.5815 71.6134 44.2923 71.5192C44.3953 71.5054 44.4996 71.4929 44.6025 71.479C45.3209 71.3761 46.0367 71.253 46.7463 71.1073C46.8404 71.0885 46.9334 71.0659 47.0276 71.0458C47.7208 70.8976 48.4102 70.7318 49.0922 70.5422C49.1286 70.5321 49.1663 70.5233 49.2027 70.5133C49.9059 70.3161 50.6017 70.0926 51.2911 69.8515C51.4004 69.8138 51.5097 69.7749 51.6202 69.7347C52.3121 69.486 52.9978 69.221 53.6722 68.9297C53.6735 68.9297 53.6735 68.9297 53.6735 68.9297C54.3428 68.6396 55.0009 68.3244 55.6514 67.9953C55.7506 67.9451 55.8498 67.8961 55.9478 67.8446C56.5857 67.5131 57.2149 67.164 57.8328 66.7935C57.9144 66.7445 57.9948 66.693 58.0764 66.6441C58.6616 66.2862 59.2393 65.9132 59.8045 65.5213C59.8597 65.4824 59.9162 65.446 59.9715 65.4071C60.5605 64.9951 61.1356 64.5606 61.6995 64.111C61.8025 64.0282 61.9055 63.9453 62.0085 63.8611C62.5736 63.399 63.1312 62.9243 63.6699 62.427C63.6699 62.4257 63.6712 62.4257 63.6712 62.4257C64.2037 61.9334 64.7173 61.4173 65.2196 60.8911C65.3151 60.7906 65.4118 60.6914 65.506 60.5909C65.9932 60.0672 66.4679 59.5285 66.9263 58.9734C66.9992 58.8855 67.0682 58.7938 67.1398 58.7059C67.558 58.1885 67.9624 57.6573 68.3529 57.1135C68.4157 57.0256 68.481 56.9415 68.5426 56.8536C68.9583 56.2633 69.3551 55.6555 69.7369 55.0338C69.8185 54.9007 69.8989 54.7651 69.9793 54.6295C70.3623 53.9902 70.7328 53.3397 71.0769 52.6691C71.4046 52.0324 71.7098 51.3781 71.9986 50.7138C72.285 50.0507 72.5525 49.3738 72.7999 48.6856C72.8765 48.4746 72.9468 48.2611 73.0196 48.0476C73.2457 47.3833 73.4542 46.7102 73.6463 46.027C73.8384 45.3338 74.0155 44.633 74.17 43.9209C74.1913 43.8217 74.2026 43.7213 74.2227 43.622L74.1675 43.3684C73.7129 41.3465 73.0837 39.3899 72.3026 37.5111C71.9434 36.6459 71.5465 35.8007 71.1221 34.9718C71.0681 34.8663 71.0178 34.7596 70.9626 34.6541C70.5281 33.8253 70.0596 33.0165 69.5623 32.2278C69.4895 32.111 69.4129 31.998 69.3388 31.8837C68.8251 31.09 68.2889 30.3127 67.715 29.5642C67.7137 29.5617 67.7125 29.5592 67.71 29.5579C67.1373 28.812 66.527 28.0961 65.8953 27.3979C65.786 27.2761 65.6755 27.1542 65.565 27.0349C64.9371 26.3593 64.2853 25.705 63.6046 25.0796C63.5268 25.008 63.4451 24.9415 63.3673 24.8699C62.7255 24.2909 62.0599 23.7359 61.373 23.2046C61.2637 23.118 61.1557 23.0301 61.0452 22.9459C60.3181 22.3946 59.5658 21.8747 58.7935 21.3786C58.6353 21.2769 58.4745 21.179 58.3138 21.0798C57.5151 20.585 56.7013 20.1103 55.8574 19.677C54.0125 18.7276 52.1137 17.9527 50.1785 17.3487C49.533 17.1477 48.8837 16.9656 48.2319 16.8024C45.6223 16.1506 42.9612 15.8052 40.2925 15.7676C38.9588 15.7475 37.6226 15.8052 36.2914 15.9396C34.959 16.074 33.6315 16.285 32.3142 16.5726C29.6782 17.149 27.0811 18.0318 24.5682 19.2211C22.7987 20.0625 21.1209 21.032 19.5435 22.1221C14.8103 25.3936 10.9812 29.7475 8.31384 34.9392C7.27652 36.951 6.43385 39.1111 5.79338 41.3804C5.57988 42.1376 5.389 42.9062 5.22071 43.6874V43.6899C5.19936 43.7878 5.18806 43.887 5.16797 43.9862L5.22323 44.2399C5.67533 46.253 6.30073 48.2008 7.07684 50.072C7.43476 50.936 7.8316 51.78 8.25482 52.6101C8.31384 52.7244 8.37036 52.8424 8.42938 52.9567Z" fill="#1A1919"/>
<path fill-rule="evenodd" clip-rule="evenodd" d="M24.5909 34.2439C24.9098 33.6235 25.2552 33.0245 25.6282 32.4468C28.2353 28.403 32.1246 25.4103 36.7637 23.9196C38.8635 23.2465 41.0172 22.9125 43.1597 22.9125C46.4311 22.9125 49.6762 23.6911 52.6689 25.2295C57.6232 27.7763 61.289 32.0977 62.9894 37.4011C63.6286 39.3891 63.9626 41.4273 63.9965 43.458C64.0518 46.8437 63.2744 50.2106 61.6833 53.3075C56.4276 63.5351 43.8328 67.5751 33.6053 62.3219C23.3802 57.0637 19.3377 44.4689 24.5909 34.2439ZM32.4298 64.6075C35.8469 66.3645 39.4989 67.1958 43.0994 67.1958C51.6039 67.1958 59.8246 62.553 63.9702 54.483C66.831 48.9184 67.3534 42.5714 65.4395 36.6149C63.5269 30.6585 59.4102 25.8021 53.8443 22.9426C52.0698 22.0309 50.2112 21.3829 48.3161 20.9496C45.3461 20.2702 42.2818 20.1835 39.2528 20.6984C38.1539 20.8868 37.0588 21.1254 35.9775 21.4733C30.0198 23.3847 25.1635 27.5026 22.3052 33.0672C16.4003 44.5543 20.9426 58.7038 32.4298 64.6075Z" fill="#1A1919"/>
<path fill-rule="evenodd" clip-rule="evenodd" d="M112.2 20.7663C116.294 20.5678 121.424 20.1245 122.263 19.4841C122.558 18.8913 122.855 17.7083 123.002 15.9313C123.2 13.8114 122.46 11.8875 121.621 11.4429C120.437 10.8514 118.07 10.5563 115.307 11.0486C113.039 11.4932 112.25 15.9313 112.2 20.7663ZM112.2 23.1335C112.447 27.2765 113.531 30.1876 115.406 30.7301C117.527 31.3706 122.953 30.828 126.011 29.8912V32.801C123.889 33.3435 120.24 33.7378 118.119 33.7378C111.609 33.7378 108.6 30.7301 108.6 21.5549C108.6 12.1349 111.016 8.08984 117.33 8.08984C119.598 8.08984 123.2 8.38497 124.235 9.07568C125.321 9.76639 126.8 12.6762 126.554 16.1297C126.307 19.4338 125.321 21.1606 124.039 21.9003C122.706 22.689 116.294 23.3307 112.2 23.1335Z" fill="#1A1919"/>
<path fill-rule="evenodd" clip-rule="evenodd" d="M130.051 8.33594H133.752C133.752 8.33594 136.613 20.7662 139.669 28.6089C142.777 20.7662 145.638 8.33594 145.638 8.33594H149.338C148.795 10.9016 144.651 29.743 137.056 43.0109L132.665 42.9619C135.576 38.6217 137.893 33.4916 137.893 33.4916C133.703 23.7752 130.051 8.33594 130.051 8.33594Z" fill="#1A1919"/>
<path fill-rule="evenodd" clip-rule="evenodd" d="M155.399 20.7663C159.493 20.5678 164.623 20.1245 165.461 19.4841C165.757 18.8913 166.053 17.7083 166.201 15.9313C166.399 13.8114 165.658 11.8875 164.821 11.4429C163.635 10.8514 161.269 10.5563 158.506 11.0486C156.238 11.4932 155.448 15.9313 155.399 20.7663ZM155.399 23.1335C155.645 27.2765 156.731 30.1876 158.605 30.7301C160.725 31.3706 166.151 30.828 169.21 29.8912V32.801C167.089 33.3435 163.438 33.7378 161.318 33.7378C154.807 33.7378 151.799 30.7301 151.799 21.5549C151.799 12.1349 154.215 8.08984 160.529 8.08984C162.797 8.08984 166.399 8.38497 167.434 9.07568C168.519 9.76639 170 12.6762 169.752 16.1297C169.505 19.4338 168.519 21.1606 167.237 21.9003C165.904 22.689 159.493 23.3307 155.399 23.1335Z" fill="#1A1919"/>
<path fill-rule="evenodd" clip-rule="evenodd" d="M181.192 33.4916C176.999 23.7752 173.25 8.33594 173.25 8.33594H176.901C176.901 8.33594 179.81 20.8642 182.868 28.7069C185.975 20.8642 188.886 8.33594 188.886 8.33594H192.536C192.536 8.33594 188.787 23.7752 184.595 33.4916H181.192Z" fill="#1A1919"/>
<path fill-rule="evenodd" clip-rule="evenodd" d="M197.711 33.4919H201.31V8.33625H197.711V33.4919ZM197.711 4.34018H201.31V0H197.711V4.34018Z" fill="#1A1919"/>
<path fill-rule="evenodd" clip-rule="evenodd" d="M207.23 33.4902V10.4556C213.296 7.00333 219.413 8.13736 220.696 8.53169C224.247 9.66697 225.628 14.2043 225.628 20.7146V33.4902H222.028V20.8138C222.028 16.2752 221.189 11.7378 218.723 11.1953C216.948 10.801 213.987 10.6528 210.831 11.7881V33.4902H207.23Z" fill="#1A1919"/>
<path fill-rule="evenodd" clip-rule="evenodd" d="M231.297 33.4902V10.4556C237.363 7.00333 243.481 8.13736 244.762 8.53169C248.313 9.66697 249.695 14.2043 249.695 20.7146V33.4902H246.094V20.8138C246.094 16.2752 245.256 11.7378 242.789 11.1953C241.015 10.801 238.053 10.6528 234.897 11.7881V33.4902H231.297Z" fill="#1A1919"/>
<path fill-rule="evenodd" clip-rule="evenodd" d="M113.729 51.0758H119.747V54.233L113.729 53.8876V66.9584C113.729 69.0795 113.53 71.7431 114.617 72.9764C115.356 73.814 116.984 73.6671 120.092 72.8772V75.9364C115.899 76.9222 113.53 76.725 112.199 75.4918C109.98 73.5679 110.127 69.4738 110.127 65.43V46.2911L113.729 46.0449V51.0758Z" fill="#1A1919"/>
<path fill-rule="evenodd" clip-rule="evenodd" d="M126.649 63.5085C130.742 63.3113 135.872 62.868 136.711 62.2262C137.006 61.6335 137.304 60.4505 137.451 58.6747C137.648 56.5536 136.908 54.6297 136.069 54.1851C134.886 53.5949 132.518 53.2972 129.756 53.7908C127.488 54.2354 126.698 58.6747 126.649 63.5085ZM126.649 65.8757C126.897 70.0187 127.981 72.9285 129.855 73.4723C131.975 74.114 137.402 73.5702 140.46 72.6334V75.5431C138.339 76.0857 134.689 76.48 132.568 76.48C126.058 76.48 123.049 73.4723 123.049 64.2971C123.049 54.8758 125.465 50.832 131.778 50.832C134.047 50.832 137.648 51.1284 138.684 51.8191C139.77 52.5086 141.248 55.4196 141.002 58.8719C140.756 62.1773 139.77 63.9028 138.487 64.6437C137.154 65.4324 130.742 66.0729 126.649 65.8757Z" fill="#1A1919"/>
<path fill-rule="evenodd" clip-rule="evenodd" d="M160.775 75.7893C158.802 76.2828 155.793 76.48 153.327 76.48C147.211 76.48 144.498 73.3731 144.498 63.8048C144.498 54.2353 147.211 50.832 153.327 50.832C155.793 50.832 158.802 51.0292 160.775 51.5215V54.4325C160.775 54.4325 155.694 52.9531 151.305 53.7908C148.789 54.2856 147.95 58.6747 147.95 63.8048C147.95 68.8847 148.789 72.9787 151.305 73.4723C155.694 74.3602 160.775 72.8305 160.775 72.8305V75.7893Z" fill="#1A1919"/>
<path fill-rule="evenodd" clip-rule="evenodd" d="M164.965 76.2326V40.769L168.564 40.4727V52.3592C172.708 50.2883 177.148 50.7806 178.43 51.1762C181.981 52.3102 183.362 56.8488 183.362 63.359V76.2326H179.761V63.457C179.761 58.9197 178.922 54.3823 176.456 53.8398C174.681 53.4455 171.721 53.7896 168.564 54.9248V76.2326H164.965Z" fill="#1A1919"/>
<path fill-rule="evenodd" clip-rule="evenodd" d="M189.033 76.2344V53.1998C195.1 49.7475 201.217 50.8815 202.5 51.2758C206.051 52.4099 207.431 56.9484 207.431 63.4587V76.2344H203.831V63.5579C203.831 59.0206 202.992 54.4832 200.525 53.9395C198.751 53.5451 195.791 53.3982 192.634 54.5322V76.2344H189.033Z" fill="#1A1919"/>
<path fill-rule="evenodd" clip-rule="evenodd" d="M226.813 64.1489C226.813 58.8229 226.073 54.7779 223.607 54.0382C222.375 53.6928 220.106 53.5446 218.33 53.7908C216.16 54.8758 215.024 58.4273 215.024 63.5085C215.024 68.7855 215.764 72.5844 218.182 73.3241C219.465 73.7184 221.733 73.8164 223.459 73.5702C225.679 72.4852 226.813 69.279 226.813 64.1489ZM230.414 63.8048C230.414 73.4233 227.158 76.48 220.894 76.48C214.581 76.48 211.375 73.4233 211.375 63.8048C211.375 54.1361 214.68 50.832 220.894 50.832C227.258 50.832 230.414 54.1361 230.414 63.8048Z" fill="#1A1919"/>
<path fill-rule="evenodd" clip-rule="evenodd" d="M238.202 76.2326H234.602V40.769L238.202 40.4727V76.2326Z" fill="#1A1919"/>
<path fill-rule="evenodd" clip-rule="evenodd" d="M257.833 64.1489C257.833 58.8229 257.093 54.7779 254.628 54.0382C253.394 53.6928 251.125 53.5446 249.349 53.7908C247.179 54.8758 246.045 58.4273 246.045 63.5085C246.045 68.7855 246.784 72.5844 249.201 73.3241C250.485 73.7184 252.753 73.8164 254.478 73.5702C256.699 72.4852 257.833 69.279 257.833 64.1489ZM261.433 63.8048C261.433 73.4233 258.179 76.48 251.914 76.48C245.601 76.48 242.395 73.4233 242.395 63.8048C242.395 54.1361 245.699 50.832 251.914 50.832C258.277 50.832 261.433 54.1361 261.433 63.8048Z" fill="#1A1919"/>
<path fill-rule="evenodd" clip-rule="evenodd" d="M278.938 72.3872V54.7289C277.112 53.4957 273.166 53.2483 271.144 53.939C268.875 54.7289 268.233 59.3152 268.233 64.1992C268.233 68.9349 269.072 72.0406 270.503 73.3241C271.686 74.4091 275.781 73.6694 278.938 72.3872ZM270.059 76.1359C266.507 75.0019 264.633 70.8086 264.633 64.2971C264.633 53.5949 267.987 50.832 274.399 50.832C278.987 50.832 282.539 52.5086 282.539 52.5086V72.9787C282.539 82.547 279.825 85.7041 273.709 85.7531C271.686 85.7531 268.629 85.6062 266.656 85.1114V81.9555C266.656 81.9555 272.674 83.5843 276.767 82.6964C278.05 82.0547 278.691 79.1436 278.938 74.9516C274.794 77.0238 271.341 76.529 270.059 76.1359Z" fill="#1A1919"/>
<path fill-rule="evenodd" clip-rule="evenodd" d="M285.74 51.0781H289.44C289.44 51.0781 292.302 63.5084 295.359 71.3499C298.467 63.5084 301.328 51.0781 301.328 51.0781H305.026C304.485 53.6438 300.341 72.4851 292.745 85.7531L288.355 85.7041C291.265 81.3639 293.583 76.2338 293.583 76.2338C289.391 66.5174 285.74 51.0781 285.74 51.0781Z" fill="#1A1919"/>
</svg>
