<svg width="272" height="73" viewBox="0 0 272 73" fill="none" xmlns="http://www.w3.org/2000/svg">
<path fill-rule="evenodd" clip-rule="evenodd" d="M30.9291 28.6769C32.3498 27.2975 36.8766 22.6085 47.3665 18.957L24.4825 18.961C22.4212 26.8922 23.9742 33.0051 25.6 36.2525C25.6004 36.2529 26.8248 32.6625 30.9291 28.6769Z" fill="#006CF0"/>
<path fill-rule="evenodd" clip-rule="evenodd" d="M17.9391 53.7019H47.3651C42.5251 52.0784 31.4309 47.7395 26.1109 38.9255C22.6328 33.1631 21.813 26.4473 23.672 18.957H18.3798C9.449 34.3468 14.9669 48.3738 17.9391 53.7019Z" fill="#EE8100"/>
<path fill-rule="evenodd" clip-rule="evenodd" d="M5.5039 53.7019H17.048C8.47885 37.2801 14.7208 23.6203 17.4565 18.957H5.58855C-2.72947 32.1005 0.309459 45.8255 5.5039 53.7019Z" fill="#3D3D3F"/>
<path fill-rule="evenodd" clip-rule="evenodd" d="M136.7 22.832L151.859 50.7456H147.595L142.519 41.6013H128.862L123.966 50.7456H119.768L134.837 22.832H136.7ZM135.815 29.2307L130.792 38.3059H140.751L135.815 29.2307Z" fill="#3D3D3F"/>
<path fill-rule="evenodd" clip-rule="evenodd" d="M174.094 50.7456C175.809 41.4521 179.3 22.832 179.3 22.832H180.943L194.571 44.4922L208.2 22.832H209.461L214.739 50.7456H210.992L207.277 30.9816L194.943 50.7456H194.035L181.528 30.9244L177.829 50.7456H174.145H174.094Z" fill="#3D3D3F"/>
<path fill-rule="evenodd" clip-rule="evenodd" d="M218.615 22.832H222.212V50.7456H218.615C218.615 50.7456 218.615 32.1248 218.615 22.832Z" fill="#3D3D3F"/>
<path fill-rule="evenodd" clip-rule="evenodd" d="M246.873 22.832H251.302L258.969 33.6518L266.663 22.832H271.176L260.76 37.4184V50.7456H257.103V37.4184C257.103 37.4184 250.365 27.6791 246.873 22.832Z" fill="#3D3D3F"/>
<path d="M87.7051 22.832H91.9016V39.0653C91.9016 42.4345 92.4795 43.6809 94.2034 45.117C94.9298 45.7215 97.8555 47.0513 101.595 47.0521C105.23 47.0552 107.995 45.77 108.986 45.1765C111.41 43.7261 111.531 42.5158 111.652 39.0057V22.832H115.892V39.7551C115.892 43.297 114.72 46.0061 112.38 47.8769C110.039 49.7477 106.513 50.746 101.797 50.746C97.0512 50.746 93.5127 49.729 91.1907 47.8229C88.8663 45.9121 87.7055 43.2216 87.7055 39.7555V22.832H87.7051Z" fill="#3D3D3F"/>
<path fill-rule="evenodd" clip-rule="evenodd" d="M155.732 22.832H159.407V47.0604H170.216V50.7456H155.732C155.732 50.7456 155.732 32.0152 155.732 22.832Z" fill="#3D3D3F"/>
<path fill-rule="evenodd" clip-rule="evenodd" d="M226.088 22.875H242.993V26.5757H236.446V50.6988H232.79V26.5923H226.088V22.875Z" fill="#3D3D3F"/>
<path fill-rule="evenodd" clip-rule="evenodd" d="M61.8984 54.4961H54.752L71.8335 64.4684H79.0531L61.8984 54.4961Z" fill="#3D3D3F"/>
<path fill-rule="evenodd" clip-rule="evenodd" d="M17.9779 18.179C22.2026 11.325 29.4147 5.43563 41.291 5.43563C51.2559 5.43563 59.192 9.38161 64.241 16.8472C69.5829 24.7463 69.9981 33.8053 69.9981 36.3937C69.9981 44.3774 68.3668 50.3989 64.8685 55.2963L72.9703 60.0263C78.642 54.5001 82.5362 45.2844 82.6872 36.982C82.6908 36.7859 82.6927 36.5902 82.6927 36.3937C82.6927 16.5039 64.2581 0.322266 41.5986 0.322266C26.5117 0.322266 13.2973 7.49575 6.15039 18.1611" fill="#3D3D3F"/>
<path fill-rule="evenodd" clip-rule="evenodd" d="M6.05859 54.4887C13.1844 65.2279 26.4457 72.4617 41.5962 72.4617C51.271 72.4617 61.4151 69.1675 68.8656 63.6274L61.5422 59.4207C54.8067 65.6725 45.666 67.348 41.2883 67.348C29.1186 67.348 21.748 61.532 17.5276 54.4863" fill="#3D3D3F"/>
</svg>
