<svg width="240" height="84" viewBox="0 0 240 84" fill="none" xmlns="http://www.w3.org/2000/svg">
<rect width="240" height="84" fill="white"/>
<rect width="240" height="84" fill="white"/>
<rect width="240" height="84" fill="white"/>
<path fill-rule="evenodd" clip-rule="evenodd" d="M34.1605 36.7656C35.0406 35.911 37.8451 33.0061 44.3438 30.7439L30.1666 30.7464C28.8896 35.66 29.8517 39.447 30.8589 41.4588C30.8592 41.4591 31.6177 39.2348 34.1605 36.7656Z" fill="#006CF0"/>
<path fill-rule="evenodd" clip-rule="evenodd" d="M26.1139 52.2692H44.3441C41.3456 51.2634 34.4724 48.5753 31.1766 43.1148C29.0218 39.5449 28.5139 35.3843 29.6656 30.7439H26.387C20.8541 40.2782 24.2726 48.9683 26.1139 52.2692Z" fill="#EE8100"/>
<path fill-rule="evenodd" clip-rule="evenodd" d="M18.4087 52.2692H25.5605C20.2517 42.0955 24.1188 33.6329 25.8136 30.7439H18.4611C13.3079 38.8866 15.1906 47.3895 18.4087 52.2692Z" fill="#3D3D3F"/>
<path fill-rule="evenodd" clip-rule="evenodd" d="M99.6894 33.1455L109.08 50.4386H106.439L103.294 44.7735H94.8333L91.7999 50.4386H89.199L98.5352 33.1455H99.6894ZM99.1406 37.1096L96.0289 42.732H102.199L99.1406 37.1096Z" fill="#3D3D3F"/>
<path fill-rule="evenodd" clip-rule="evenodd" d="M122.856 50.4386C123.919 44.6811 126.081 33.1455 126.081 33.1455H127.1L135.542 46.5645L143.986 33.1455H144.767L148.037 50.4386H145.716L143.414 38.1944L135.773 50.4386H135.21L127.462 38.159L125.17 50.4386H122.888H122.856Z" fill="#3D3D3F"/>
<path fill-rule="evenodd" clip-rule="evenodd" d="M150.438 33.1455H152.667V50.4386H150.438C150.438 50.4386 150.438 38.9026 150.438 33.1455Z" fill="#3D3D3F"/>
<path fill-rule="evenodd" clip-rule="evenodd" d="M167.944 33.1455H170.688L175.438 39.8486L180.204 33.1455H183L176.547 42.1821V50.4386H174.282V42.1821C174.282 42.1821 170.107 36.1484 167.944 33.1455Z" fill="#3D3D3F"/>
<path d="M69.3358 33.1455H71.9357V43.2024C71.9357 45.2897 72.2937 46.0619 73.3617 46.9516C73.8117 47.3261 75.6243 48.1499 77.9408 48.1504C80.1932 48.1524 81.906 47.3561 82.5198 46.9885C84.0214 46.0899 84.0967 45.3401 84.1713 43.1655V33.1455H86.798V43.6298C86.798 45.8241 86.0722 47.5024 84.6226 48.6614C83.172 49.8204 80.9877 50.4389 78.0663 50.4389C75.1259 50.4389 72.9338 49.8089 71.4952 48.628C70.0552 47.4441 69.3361 45.7773 69.3361 43.63V33.1455H69.3358Z" fill="#3D3D3F"/>
<path fill-rule="evenodd" clip-rule="evenodd" d="M111.48 33.1455H113.757V48.1556H120.454V50.4386H111.48C111.48 50.4386 111.48 38.8347 111.48 33.1455Z" fill="#3D3D3F"/>
<path fill-rule="evenodd" clip-rule="evenodd" d="M155.067 33.1726H165.541V35.4653H161.485V50.4101H159.22V35.4756H155.067V33.1726Z" fill="#3D3D3F"/>
<path fill-rule="evenodd" clip-rule="evenodd" d="M53.3466 52.761H48.9192L59.5016 58.9391H63.9743L53.3466 52.761Z" fill="#3D3D3F"/>
<path fill-rule="evenodd" clip-rule="evenodd" d="M26.1371 30.2611C28.7544 26.015 33.2225 22.3663 40.5802 22.3663C46.7536 22.3663 51.6703 24.811 54.7982 29.4361C58.1076 34.3298 58.3649 39.942 58.3649 41.5456C58.3649 46.4917 57.3543 50.2222 55.187 53.2563L60.2063 56.1866C63.72 52.763 66.1325 47.0536 66.2261 41.9101C66.2283 41.7886 66.2295 41.6674 66.2295 41.5456C66.2295 29.2234 54.8088 19.1985 40.7707 19.1985C31.424 19.1985 23.2374 23.6426 18.8097 30.2501" fill="#3D3D3F"/>
<path fill-rule="evenodd" clip-rule="evenodd" d="M18.7545 52.7578C23.1691 59.411 31.3848 63.8925 40.771 63.8925C46.7647 63.8925 53.0492 61.8517 57.665 58.4195L53.128 55.8133C48.9551 59.6864 43.2923 60.7244 40.5802 60.7244C33.0408 60.7244 28.4745 57.1213 25.8598 52.7563" fill="#3D3D3F"/>
<path fill-rule="evenodd" clip-rule="evenodd" d="M206 33C206 33.55 206.45 34 207 34H219C219.55 34 220 33.55 220 33V28C220 27.45 220.45 27 221 27C221.55 27 222 27.45 222 28V34C222 35.1 221.1 36 220 36H206C204.9 36 204 35.1 204 34V20C204 18.9 204.89 18 206 18H212C212.55 18 213 18.45 213 19C213 19.55 212.55 20 212 20H207C206.45 20 206 20.45 206 21V33ZM216 20C215.45 20 215 19.55 215 19C215 18.45 215.45 18 216 18H222V24C222 24.55 221.55 25 221 25C220.45 25 220 24.55 220 24V21.41L210.87 30.54C210.48 30.93 209.85 30.93 209.46 30.54C209.07 30.15 209.07 29.52 209.46 29.13L218.59 20H216Z" fill="#514E4E"/>
</svg>
