<svg width="137" height="56" viewBox="0 0 137 56" fill="none" xmlns="http://www.w3.org/2000/svg">
<path d="M1.19082 20.2743C1.42883 20.4147 1.71445 20.5552 2.14287 20.7425C2.57081 20.9298 3.04683 21.0702 3.57093 21.2575C4.09456 21.4448 4.71291 21.5852 5.33174 21.6789C5.95104 21.7725 6.56987 21.8662 7.23583 21.8662C8.61629 21.8662 9.56834 21.5852 10.092 21.0702C10.6161 20.5552 10.9012 19.8529 10.9012 19.0569C10.9012 18.6356 10.8536 18.261 10.7113 17.9801C10.5685 17.6992 10.378 17.4182 10.0924 17.231C9.80682 16.9969 9.47361 16.8096 9.04566 16.6691C8.61724 16.4818 8.18835 16.2946 7.6652 16.1073L6.09433 15.4986C4.99948 15.0772 4.09503 14.609 3.3334 14.094C2.61889 13.579 2.00006 13.0171 1.57164 12.4085C1.14322 11.7998 0.80953 11.0975 0.619598 10.3484C0.429189 9.59925 0.333984 8.75648 0.333984 7.82008C0.333984 6.60275 0.571995 5.47906 1.04802 4.54266C1.52404 3.55943 2.19047 2.76348 3.04731 2.108C3.90415 1.45252 4.9038 0.937492 6.09385 0.60975C7.28391 0.282008 8.56917 0.0947266 9.99723 0.0947266C10.9969 0.0947266 12.0913 0.141547 13.2813 0.282008C14.4714 0.422469 15.6138 0.703391 16.7087 1.12477L16.4231 6.27501C15.8037 5.94726 14.995 5.66634 13.9949 5.38542C12.9952 5.1045 11.9956 4.96404 10.9488 4.96404C9.90155 4.96404 9.04471 5.19814 8.42541 5.61952C7.80658 6.04091 7.52144 6.64957 7.52144 7.44551C7.52144 7.77326 7.56904 8.101 7.66425 8.3351C7.75945 8.5692 7.94986 8.8033 8.14027 9.0374C8.37828 9.27151 8.66389 9.50561 9.09231 9.69289C9.47313 9.92699 9.99676 10.1611 10.568 10.3952L13.7573 11.7998C14.3762 12.0807 14.9474 12.4085 15.4715 12.7362C15.9951 13.1108 16.4711 13.5322 16.8995 14.0472C17.3275 14.5622 17.6612 15.1709 17.8992 15.8732C18.1372 16.5755 18.28 17.4182 18.28 18.4015C18.28 19.8061 18.042 21.0702 17.5184 22.1471C17.0424 23.224 16.3283 24.1604 15.4239 24.8627C14.5194 25.565 13.4246 26.1268 12.1393 26.5014C10.8541 26.8759 9.426 27.0632 7.90273 27.0632C6.28426 27.0632 4.9038 26.9228 3.66614 26.6887C2.42848 26.4546 1.47644 26.2205 0.810006 26.0332L1.19082 20.2743Z" fill="#0E6B6E"/>
<path d="M22.2791 0.421875H29.4194V26.5944H22.2791V0.421875Z" fill="#0E6B6E"/>
<path d="M45.5089 11.4242H55.8386V25.5639C55.0765 25.9384 53.9821 26.2662 52.5065 26.5939C51.0303 26.9217 49.5075 27.0621 47.7938 27.0621C45.7469 27.0621 43.8429 26.7812 42.0816 26.2194C40.3203 25.6575 38.7975 24.8148 37.5118 23.6911C36.2265 22.5674 35.2269 21.1628 34.5128 19.4772C33.7988 17.7449 33.4656 15.8253 33.4656 13.6715C33.4656 11.7051 33.7512 9.87908 34.3695 8.19355C34.9888 6.50802 35.8928 5.05659 37.0829 3.88609C38.2729 2.71558 39.8438 1.73235 41.6532 1.03005C43.5092 0.327742 45.6513 0 48.1271 0C49.8883 0 51.3164 0.140461 52.4589 0.374563C53.6013 0.608664 54.4581 0.842765 55.0294 1.03005L54.6486 6.60166C53.9821 6.18028 53.1253 5.80572 52.1256 5.57162C51.1255 5.29069 50.0311 5.15023 48.7935 5.15023C47.413 5.15023 46.223 5.33751 45.2233 5.7589C44.2232 6.18028 43.3668 6.74212 42.748 7.49125C42.0816 8.24037 41.6056 9.12996 41.3199 10.2068C40.9867 11.2369 40.8439 12.4074 40.8439 13.6715C40.8439 14.9357 40.9867 16.0594 41.3199 17.0894C41.6056 18.0726 42.034 18.9154 42.6052 19.6177C43.1288 20.2732 43.7953 20.7882 44.5093 21.1628C45.2233 21.5373 46.0321 21.7246 46.8413 21.7246C47.3173 21.7246 47.7458 21.6778 48.1266 21.631C48.555 21.5842 48.8882 21.4437 49.1738 21.2564V16.2935H45.5565V11.4242H45.5089Z" fill="#0E6B6E"/>
<path d="M66.5957 8.42815H66.4529V26.5944H60.217V0.421875H68.4998L75.4497 18.4477H75.5444V0.421875H81.7808V26.5944H73.4028L66.5957 8.42815Z" fill="#0E6B6E"/>
<path d="M93.2529 16.9963C93.2053 17.6986 93.2529 18.4009 93.3481 18.9627C93.4433 19.5714 93.5861 20.0864 93.8242 20.5078C94.0622 20.9292 94.3954 21.2569 94.8238 21.491C95.2522 21.7251 95.7758 21.8656 96.3471 21.8656C96.9183 21.8656 97.4419 21.7251 97.8703 21.491C98.2988 21.2569 98.5844 20.9292 98.8224 20.5078C99.0604 20.0864 99.2508 19.5714 99.2984 18.9627C99.3936 18.3541 99.4412 17.6986 99.4412 16.9963V0.421875H106.439V16.7622C106.439 18.6818 106.153 20.2737 105.629 21.5847C105.106 22.8956 104.392 23.9257 103.44 24.7684C102.535 25.5644 101.44 26.173 100.203 26.5008C98.9647 26.8285 97.6795 27.0158 96.2514 27.0158C94.8714 27.0158 93.5385 26.8285 92.3004 26.5008C91.0627 26.173 90.0155 25.5644 89.0635 24.7684C88.159 23.9725 87.445 22.8956 86.8738 21.5847C86.3497 20.2737 86.0645 18.6818 86.0645 16.7622V0.421875H93.062V16.9963H93.2529Z" fill="#0E6B6E"/>
<path d="M9.80605 51.0825C9.52044 51.2234 9.09202 51.3639 8.52079 51.4575C7.94957 51.5507 7.33074 51.598 6.66478 51.598C5.56946 51.598 4.57029 51.4112 3.76057 51.0362C2.95134 50.6616 2.2373 50.1466 1.66655 49.4911C1.09533 48.8361 0.714509 48.0392 0.42842 47.1501C0.142807 46.2605 0 45.2773 0 44.2004C0 43.1704 0.142807 42.1867 0.427944 41.2975C0.714033 40.408 1.14245 39.6115 1.66608 38.9565C2.1897 38.3015 2.90373 37.786 3.71297 37.4115C4.52221 37.0364 5.47425 36.8496 6.5691 36.8496C7.33074 36.8496 7.94909 36.9433 8.52079 37.0837C9.0925 37.2242 9.52044 37.3646 9.75845 37.4583L9.66325 39.7993C9.37716 39.6588 9.04442 39.5184 8.616 39.2843C8.18758 39.097 7.61635 39.0033 6.94992 39.0033C6.37869 39.0033 5.85507 39.0965 5.37905 39.2843C4.90303 39.472 4.47461 39.7993 4.09379 40.2207C3.71297 40.6421 3.42736 41.1571 3.18935 41.8594C2.95134 42.5149 2.85661 43.3108 2.85661 44.2472C2.85661 45.1836 2.95134 45.9796 3.18935 46.6351C3.42736 47.2905 3.71345 47.8529 4.09379 48.2738C4.47461 48.6951 4.90303 48.9761 5.37905 49.2102C5.85507 49.3975 6.37869 49.4916 6.94992 49.4916C7.61635 49.4916 8.13998 49.4443 8.5684 49.3047C8.99682 49.1634 9.37763 48.9756 9.66325 48.7888L9.80605 51.0825Z" fill="#0E6B6E"/>
<path d="M16.9941 43.403C17.2802 42.7007 17.6605 42.1389 18.0894 41.717C18.5174 41.2961 19.0415 41.0147 19.6122 40.8747C20.1834 40.6874 20.7075 40.6406 21.2783 40.6406C21.8495 40.6406 22.3736 40.7338 22.9444 40.8747C23.5156 41.0615 23.9916 41.3429 24.4676 41.717C24.8961 42.1384 25.2769 42.7007 25.5625 43.403C25.8486 44.1053 25.9909 44.9944 25.9909 46.0718C25.9909 47.1955 25.8481 48.0851 25.5625 48.7874C25.2769 49.4897 24.8965 50.0515 24.4676 50.4734C24.0397 50.8943 23.5156 51.1757 22.9444 51.3157C22.3736 51.4566 21.8495 51.5498 21.2783 51.5498C20.7075 51.5498 20.1834 51.4566 19.6122 51.3157C19.041 51.1752 18.565 50.8943 18.0889 50.4729C17.6129 50.0515 17.2797 49.4892 16.9936 48.7869C16.708 48.0846 16.5657 47.1482 16.5657 46.0713C16.5657 44.9944 16.7085 44.1053 16.9941 43.403ZM19.3266 47.4296C19.3742 47.8505 19.4694 48.2719 19.6598 48.6001C19.8026 48.9273 20.0406 49.2083 20.2786 49.4424C20.5643 49.6765 20.8975 49.7706 21.2783 49.7706C21.7067 49.7706 22.0404 49.6765 22.2784 49.4424C22.564 49.2083 22.7544 48.9273 22.8972 48.6001C23.0401 48.2719 23.1353 47.8505 23.2305 47.4296C23.2781 47.0082 23.3257 46.54 23.3257 46.1181C23.3257 45.6963 23.2776 45.2285 23.2305 44.8072C23.1824 44.3862 23.0877 43.9644 22.8972 43.6367C22.7068 43.3089 22.5164 43.028 22.2784 42.7939C21.9923 42.5598 21.6596 42.4661 21.2783 42.4661C20.8504 42.4661 20.5167 42.5598 20.2786 42.7939C19.993 43.028 19.8026 43.2621 19.6598 43.6367C19.517 43.9644 19.3737 44.3862 19.3266 44.8072C19.2795 45.2281 19.2314 45.6963 19.2314 46.1181C19.2314 46.54 19.279 46.9614 19.3266 47.4296Z" fill="#0E6B6E"/>
<path d="M33.1313 42.5602C33.1313 42.2325 33.1313 41.9047 33.1313 41.6238C33.1313 41.3429 33.0837 41.062 33.0837 40.8279H35.5115C35.5115 41.1092 35.5591 41.3897 35.5591 41.6238C35.5591 41.9047 35.6071 42.1852 35.6071 42.4193H35.6547C35.7499 42.2325 35.8927 42.092 36.0356 41.8579C36.1788 41.6706 36.3688 41.4365 36.6068 41.2488C36.8448 41.062 37.0828 40.9215 37.416 40.7806C37.7488 40.6406 38.082 40.5938 38.558 40.5938C39.1768 40.5938 39.6528 40.6874 40.0808 40.9215C40.4621 41.1088 40.7948 41.3897 41.0328 41.7643C41.2708 42.1388 41.4613 42.5602 41.5569 43.0284C41.6526 43.4966 41.6997 44.0116 41.6997 44.5262V51.4092H39.1292V45.0417C39.1292 44.1989 39.0345 43.6371 38.7965 43.2625C38.5585 42.8875 38.1772 42.7475 37.654 42.7475C37.3208 42.7475 37.0352 42.7943 36.7972 42.9343C36.5592 43.0743 36.3688 43.262 36.226 43.4498C36.0832 43.6839 35.988 43.918 35.8927 44.2453C35.7975 44.573 35.7975 44.8544 35.7975 45.2285V51.4092H33.2265V42.5602H33.1313Z" fill="#0E6B6E"/>
<path d="M48.6968 48.9278C48.792 48.9746 48.9348 49.0214 49.1247 49.1151C49.3151 49.2082 49.506 49.2555 49.744 49.3492C49.982 49.4423 50.22 49.4896 50.5057 49.5364C50.7913 49.5833 51.0769 49.6296 51.3625 49.6296C51.8385 49.6296 52.2193 49.5364 52.5526 49.3955C52.8858 49.255 53.0286 48.9741 53.0286 48.5527C53.0286 48.3659 52.9334 48.1318 52.7906 47.9441C52.6478 47.7563 52.3145 47.4759 51.8866 47.2418L50.8394 46.6326C50.5533 46.4458 50.2681 46.3054 50.0301 46.1176C49.7445 45.9303 49.5065 45.7431 49.3161 45.509C49.0781 45.2749 48.9353 44.9935 48.7925 44.713C48.6492 44.3857 48.6021 44.0575 48.6021 43.6361C48.6021 43.2616 48.6973 42.8866 48.8401 42.5593C49.0305 42.1842 49.2685 41.9038 49.5541 41.6229C49.8873 41.342 50.2681 41.1079 50.6965 40.9206C51.1726 40.7333 51.6486 40.6396 52.2193 40.6396C52.9334 40.6396 53.5046 40.6865 53.9806 40.8265C54.4566 40.9665 54.7899 41.0133 54.8851 41.0606L54.7423 43.027C54.409 42.8861 54.0758 42.7929 53.7421 42.6993C53.3613 42.6056 52.9805 42.5588 52.5045 42.5588C51.9804 42.5588 51.6 42.652 51.362 42.8397C51.124 43.0275 51.0288 43.2611 51.0288 43.5889C51.0288 43.8702 51.124 44.1043 51.362 44.2912C51.6 44.4784 51.8861 44.7125 52.2665 44.9466L53.5517 45.7426C53.8845 45.9294 54.1706 46.1635 54.4086 46.3513C54.6466 46.539 54.8846 46.7263 55.0274 46.9604C55.1702 47.1472 55.313 47.3813 55.4082 47.6154C55.5034 47.8495 55.551 48.1309 55.551 48.4113C55.551 48.9264 55.4563 49.3478 55.2654 49.7223C55.0745 50.0969 54.7894 50.4246 54.4562 50.706C54.123 50.9869 53.6945 51.1742 53.2185 51.3142C52.7425 51.4551 52.2184 51.5483 51.6 51.5483C50.9341 51.5483 50.3624 51.5015 49.8388 51.3615C49.3151 51.2679 48.9348 51.1274 48.6487 51.0337L48.6968 48.9278Z" fill="#0E6B6E"/>
<path d="M71.0227 49.6766C71.0227 50.0048 71.0227 50.3321 71.0227 50.613C71.0227 50.8944 71.0703 51.1753 71.0703 51.4094H68.6902C68.6902 51.128 68.6422 50.8471 68.6422 50.613C68.6422 50.3321 68.5945 50.0516 68.5945 49.8175H68.5469C68.4037 50.0048 68.2609 50.1921 68.1185 50.4262C67.9762 50.6603 67.7853 50.8471 67.5473 51.0348C67.3093 51.2226 67.0713 51.3626 66.7381 51.4562C66.4525 51.5494 66.0721 51.6435 65.6432 51.6435C65.0244 51.6435 64.5484 51.5494 64.1199 51.3153C63.7391 51.1285 63.4059 50.8471 63.1679 50.473C62.9299 50.098 62.74 49.6766 62.6443 49.2084C62.5486 48.7402 62.5015 48.2252 62.5015 47.7106V40.7807H65.0715V47.1488C65.0715 47.9915 65.2148 48.5534 65.4528 48.9279C65.6908 49.303 66.0716 49.443 66.6429 49.443C66.9756 49.443 67.2617 49.3498 67.4997 49.2089C67.7377 49.0689 67.8805 48.8816 68.0233 48.6475C68.1661 48.4134 68.2613 48.1325 68.3094 47.8042C68.357 47.477 68.4041 47.1492 68.4041 46.821V40.7344H70.9747V49.6771H71.0227V49.6766Z" fill="#0E6B6E"/>
<path d="M78.6871 35.959H81.2571V51.4097H78.6871V35.959Z" fill="#0E6B6E"/>
<path d="M89.8723 38.628L92.4428 37.832V40.7812H94.5849V42.6541H92.4428V48.1325C92.4428 48.6939 92.538 49.1157 92.7289 49.303C92.9188 49.4898 93.2049 49.5839 93.5857 49.5839C93.8238 49.5839 94.0142 49.5371 94.157 49.4903C94.2998 49.4435 94.4426 49.3966 94.5378 49.3498V51.1758C94.3474 51.269 94.1094 51.3626 93.8238 51.4099C93.5381 51.4567 93.2049 51.5031 92.8241 51.5031C91.8721 51.5031 91.11 51.269 90.5868 50.8008C90.0627 50.3326 89.8247 49.5371 89.8247 48.413V42.6541H88.111V40.7812H89.8247V38.6275H89.8723V38.628Z" fill="#0E6B6E"/>
<path d="M101.536 36.2861H104.202V38.8144H101.536V36.2861ZM101.584 40.7804H104.154V51.4091H101.584V40.7804Z" fill="#0E6B6E"/>
<path d="M111.817 42.5602C111.817 42.2325 111.817 41.9047 111.817 41.6238C111.817 41.3429 111.769 41.062 111.769 40.8279H114.197C114.197 41.1092 114.245 41.3897 114.245 41.6238C114.245 41.8579 114.293 42.1852 114.293 42.4193H114.34C114.436 42.2325 114.578 42.092 114.722 41.8579C114.864 41.6706 115.054 41.4365 115.292 41.2488C115.53 41.062 115.768 40.9215 116.102 40.7806C116.434 40.6406 116.768 40.5938 117.244 40.5938C117.862 40.5938 118.338 40.6874 118.767 40.9215C119.148 41.1088 119.481 41.3897 119.719 41.7643C119.957 42.1388 120.147 42.5602 120.243 43.0284C120.338 43.4966 120.385 44.0116 120.385 44.5262V51.4092H117.72V45.0417C117.72 44.1989 117.624 43.6371 117.386 43.2625C117.148 42.8875 116.768 42.7475 116.244 42.7475C115.911 42.7475 115.625 42.7943 115.387 42.9343C115.149 43.0743 114.959 43.262 114.816 43.4498C114.673 43.6366 114.578 43.918 114.483 44.2453C114.388 44.573 114.388 44.8544 114.388 45.2285V51.4092H111.817V42.5602H111.817Z" fill="#0E6B6E"/>
<path d="M128.049 53.0479C128.335 53.2347 128.763 53.422 129.334 53.6092C129.905 53.8433 130.524 53.937 131.191 53.937C131.809 53.937 132.285 53.8433 132.666 53.6556C133.047 53.4688 133.333 53.2347 133.524 52.9065C133.713 52.5792 133.856 52.251 133.951 51.8296C134 51.4087 134.047 51.0336 134.047 50.6118V49.5832H133.999C133.904 49.7704 133.761 50.0045 133.618 50.1918C133.475 50.4259 133.285 50.6127 133.047 50.7537C132.809 50.9409 132.571 51.0809 132.238 51.175C131.905 51.2682 131.571 51.3619 131.143 51.3619C130.762 51.3619 130.381 51.2682 129.905 51.1278C129.429 50.9873 129.048 50.7068 128.667 50.3318C128.286 49.9572 128.001 49.3954 127.715 48.6931C127.477 47.9908 127.334 47.148 127.334 46.0712C127.334 45.322 127.382 44.6666 127.524 43.9643C127.667 43.3088 127.905 42.7001 128.191 42.2319C128.524 41.7164 128.905 41.3428 129.381 41.0141C129.857 40.7332 130.476 40.5459 131.19 40.5459C131.57 40.5459 131.904 40.5932 132.189 40.6868C132.476 40.7805 132.714 40.9214 132.952 41.1087C133.19 41.2955 133.38 41.4828 133.524 41.6701C133.666 41.9042 133.856 42.1383 134 42.3724H134.094C134.094 42.0914 134.094 41.811 134.142 41.5296C134.142 41.2482 134.19 40.9678 134.19 40.6868H136.522C136.474 40.9678 136.474 41.2482 136.474 41.5296C136.474 41.811 136.474 42.0914 136.474 42.3724V50.1914C136.474 51.0341 136.38 51.7828 136.236 52.4851C136.094 53.1874 135.808 53.7965 135.475 54.3111C135.094 54.8261 134.618 55.2007 133.951 55.4816C133.333 55.7625 132.523 55.903 131.524 55.903C130.667 55.903 129.905 55.8093 129.286 55.6689C128.668 55.4816 128.192 55.3879 127.858 55.2475L128.049 53.0479ZM130.239 47.5694C130.334 48.0376 130.477 48.3658 130.62 48.6931C130.763 48.974 130.953 49.2081 131.144 49.3486C131.334 49.489 131.572 49.5359 131.763 49.5359C132.572 49.5359 133.143 49.2545 133.524 48.6463C133.857 48.0844 134.048 47.148 134.048 45.9775C134.048 44.8543 133.857 44.0111 133.476 43.4497C133.096 42.8874 132.572 42.5601 131.953 42.6065C131.287 42.6065 130.811 42.9342 130.525 43.496C130.239 44.1047 130.097 44.9475 130.097 46.0243C130.096 46.5867 130.144 47.1485 130.239 47.5694Z" fill="#0E6B6E"/>
<path d="M137 30.292H0.333618V31.3689H137V30.292Z" fill="#0E6B6E"/>
<path d="M117.245 0.421875H110.962V26.5476H117.245V0.421875Z" fill="#0E6B6E"/>
<path d="M136.572 0.421875H130.05V26.5476H136.572V0.421875Z" fill="#0E6B6E"/>
<path d="M117.197 4.77616H117.15V18.5413H111.961V0.421875H120.72L123.671 11.7992H123.719L126.956 0.421875H135.524V18.5413H130.193V4.77616H130.145L125.385 18.5413H121.672L117.197 4.77616Z" fill="#0E6B6E"/>
<path d="M135.524 3.97949H126.956L123.767 15.3568H123.719L120.768 3.97949H111.961V18.5874H112.009C112.628 18.5874 113.294 18.5874 113.913 18.5874C114.389 18.5874 114.865 18.5874 115.341 18.5874C115.674 18.5874 116.007 18.5874 116.293 18.5874C116.626 18.5874 116.912 18.5874 117.15 18.5874V8.33378H117.197L120.53 18.5874C122.529 18.5874 124.576 18.5874 126.623 18.5874L130.145 8.33378H130.193V18.5874C132.002 18.5874 133.764 18.5874 135.524 18.5874V3.97949V3.97949Z" fill="#0E6B6E"/>
</svg>
