<svg width="240" height="84" viewBox="0 0 240 84" fill="none" xmlns="http://www.w3.org/2000/svg">
<rect width="240" height="84" fill="#FFFBED"/>
<path fill-rule="evenodd" clip-rule="evenodd" d="M201 33C201 33.55 201.45 34 202 34H214C214.55 34 215 33.55 215 33V28C215 27.45 215.45 27 216 27C216.55 27 217 27.45 217 28V34C217 35.1 216.1 36 215 36H201C199.9 36 199 35.1 199 34V20C199 18.9 199.89 18 201 18H207C207.55 18 208 18.45 208 19C208 19.55 207.55 20 207 20H202C201.45 20 201 20.45 201 21V33ZM211 20C210.45 20 210 19.55 210 19C210 18.45 210.45 18 211 18H217V24C217 24.55 216.55 25 216 25C215.45 25 215 24.55 215 24V21.41L205.87 30.54C205.48 30.93 204.85 30.93 204.46 30.54C204.07 30.15 204.07 29.52 204.46 29.13L213.59 20H211Z" fill="#514E4E"/>
<path d="M30.1908 33.2743C30.4288 33.4147 30.7144 33.5552 31.1429 33.7425C31.5708 33.9298 32.0468 34.0702 32.5709 34.2575C33.0946 34.4448 33.7129 34.5852 34.3317 34.6789C34.951 34.7725 35.5699 34.8662 36.2358 34.8662C37.6163 34.8662 38.5683 34.5852 39.092 34.0702C39.6161 33.5552 39.9012 32.8529 39.9012 32.0569C39.9012 31.6356 39.8536 31.261 39.7113 30.9801C39.5685 30.6992 39.378 30.4182 39.0924 30.231C38.8068 29.9969 38.4736 29.8096 38.0457 29.6691C37.6172 29.4818 37.1883 29.2946 36.6652 29.1073L35.0943 28.4986C33.9995 28.0772 33.095 27.609 32.3334 27.094C31.6189 26.579 31.0001 26.0171 30.5716 25.4085C30.1432 24.7998 29.8095 24.0975 29.6196 23.3484C29.4292 22.5992 29.334 21.7565 29.334 20.8201C29.334 19.6027 29.572 18.4791 30.048 17.5427C30.524 16.5594 31.1905 15.7635 32.0473 15.108C32.9041 14.4525 33.9038 13.9375 35.0939 13.6097C36.2839 13.282 37.5692 13.0947 38.9972 13.0947C39.9969 13.0947 41.0913 13.1415 42.2813 13.282C43.4714 13.4225 44.6138 13.7034 45.7087 14.1248L45.4231 19.275C44.8037 18.9473 43.995 18.6663 42.9949 18.3854C41.9952 18.1045 40.9956 17.964 39.9488 17.964C38.9016 17.964 38.0447 18.1981 37.4254 18.6195C36.8066 19.0409 36.5214 19.6496 36.5214 20.4455C36.5214 20.7733 36.569 21.101 36.6642 21.3351C36.7595 21.5692 36.9499 21.8033 37.1403 22.0374C37.3783 22.2715 37.6639 22.5056 38.0923 22.6929C38.4731 22.927 38.9968 23.1611 39.568 23.3952L42.7573 24.7998C43.3762 25.0807 43.9474 25.4085 44.4715 25.7362C44.9951 26.1108 45.4711 26.5322 45.8995 27.0472C46.3275 27.5622 46.6612 28.1709 46.8992 28.8732C47.1372 29.5755 47.28 30.4182 47.28 31.4015C47.28 32.8061 47.042 34.0702 46.5184 35.1471C46.0424 36.224 45.3283 37.1604 44.4239 37.8627C43.5194 38.565 42.4246 39.1268 41.1393 39.5014C39.8541 39.8759 38.426 40.0632 36.9027 40.0632C35.2843 40.0632 33.9038 39.9228 32.6661 39.6887C31.4285 39.4546 30.4764 39.2205 29.81 39.0332L30.1908 33.2743Z" fill="#0E6B6E"/>
<path d="M51.2791 13.4219H58.4194V39.5944H51.2791V13.4219Z" fill="#0E6B6E"/>
<path d="M74.5089 24.4242H84.8386V38.5639C84.0765 38.9384 82.9821 39.2662 81.5065 39.5939C80.0303 39.9217 78.5075 40.0621 76.7938 40.0621C74.7469 40.0621 72.8429 39.7812 71.0816 39.2194C69.3203 38.6575 67.7975 37.8148 66.5118 36.6911C65.2265 35.5674 64.2269 34.1628 63.5128 32.4772C62.7988 30.7449 62.4656 28.8253 62.4656 26.6715C62.4656 24.7051 62.7512 22.8791 63.3695 21.1936C63.9888 19.508 64.8928 18.0566 66.0829 16.8861C67.2729 15.7156 68.8438 14.7324 70.6532 14.03C72.5092 13.3277 74.6513 13 77.1271 13C78.8883 13 80.3164 13.1405 81.4589 13.3746C82.6013 13.6087 83.4581 13.8428 84.0294 14.03L83.6486 19.6017C82.9821 19.1803 82.1253 18.8057 81.1256 18.5716C80.1255 18.2907 79.0311 18.1502 77.7935 18.1502C76.413 18.1502 75.223 18.3375 74.2233 18.7589C73.2232 19.1803 72.3668 19.7421 71.748 20.4912C71.0816 21.2404 70.6056 22.13 70.3199 23.2068C69.9867 24.2369 69.8439 25.4074 69.8439 26.6715C69.8439 27.9357 69.9867 29.0594 70.3199 30.0894C70.6056 31.0726 71.034 31.9154 71.6052 32.6177C72.1288 33.2732 72.7953 33.7882 73.5093 34.1628C74.2233 34.5373 75.0321 34.7246 75.8413 34.7246C76.3173 34.7246 76.7458 34.6778 77.1266 34.631C77.555 34.5842 77.8882 34.4437 78.1738 34.2564V29.2935H74.5565V24.4242H74.5089Z" fill="#0E6B6E"/>
<path d="M95.5957 21.4281H95.4529V39.5944H89.217V13.4219H97.4998L104.45 31.4477H104.544V13.4219H110.781V39.5944H102.403L95.5957 21.4281Z" fill="#0E6B6E"/>
<path d="M122.253 29.9963C122.205 30.6986 122.253 31.4009 122.348 31.9627C122.443 32.5714 122.586 33.0864 122.824 33.5078C123.062 33.9292 123.395 34.2569 123.824 34.491C124.252 34.7251 124.776 34.8656 125.347 34.8656C125.918 34.8656 126.442 34.7251 126.87 34.491C127.299 34.2569 127.584 33.9292 127.822 33.5078C128.06 33.0864 128.251 32.5714 128.298 31.9627C128.394 31.3541 128.441 30.6986 128.441 29.9963V13.4219H135.439V29.7622C135.439 31.6818 135.153 33.2737 134.629 34.5847C134.106 35.8956 133.392 36.9257 132.44 37.7684C131.535 38.5644 130.44 39.173 129.203 39.5008C127.965 39.8285 126.679 40.0158 125.251 40.0158C123.871 40.0158 122.539 39.8285 121.3 39.5008C120.063 39.173 119.015 38.5644 118.063 37.7684C117.159 36.9725 116.445 35.8956 115.874 34.5847C115.35 33.2737 115.065 31.6818 115.065 29.7622V13.4219H122.062V29.9963H122.253Z" fill="#0E6B6E"/>
<path d="M38.8061 64.0825C38.5204 64.2234 38.092 64.3639 37.5208 64.4575C36.9496 64.5507 36.3307 64.598 35.6648 64.598C34.5695 64.598 33.5703 64.4112 32.7606 64.0362C31.9513 63.6616 31.2373 63.1466 30.6666 62.4911C30.0953 61.8361 29.7145 61.0392 29.4284 60.1501C29.1428 59.2605 29 58.2773 29 57.2004C29 56.1704 29.1428 55.1867 29.4279 54.2975C29.714 53.408 30.1425 52.6115 30.6661 51.9565C31.1897 51.3015 31.9037 50.786 32.713 50.4115C33.5222 50.0364 34.4743 49.8496 35.5691 49.8496C36.3307 49.8496 36.9491 49.9433 37.5208 50.0837C38.0925 50.2242 38.5204 50.3646 38.7585 50.4583L38.6632 52.7993C38.3772 52.6588 38.0444 52.5184 37.616 52.2843C37.1876 52.097 36.6164 52.0033 35.9499 52.0033C35.3787 52.0033 34.8551 52.0965 34.379 52.2843C33.903 52.472 33.4746 52.7993 33.0938 53.2207C32.713 53.6421 32.4274 54.1571 32.1893 54.8594C31.9513 55.5149 31.8566 56.3108 31.8566 57.2472C31.8566 58.1836 31.9513 58.9796 32.1893 59.6351C32.4274 60.2905 32.7134 60.8529 33.0938 61.2738C33.4746 61.6951 33.903 61.9761 34.379 62.2102C34.8551 62.3975 35.3787 62.4916 35.9499 62.4916C36.6164 62.4916 37.14 62.4443 37.5684 62.3047C37.9968 62.1634 38.3776 61.9756 38.6632 61.7888L38.8061 64.0825Z" fill="#0E6B6E"/>
<path d="M45.9941 56.403C46.2802 55.7007 46.6605 55.1389 47.0894 54.717C47.5174 54.2961 48.0415 54.0147 48.6122 53.8747C49.1834 53.6874 49.7075 53.6406 50.2783 53.6406C50.8495 53.6406 51.3736 53.7338 51.9444 53.8747C52.5156 54.0615 52.9916 54.3429 53.4676 54.717C53.8961 55.1384 54.2769 55.7007 54.5625 56.403C54.8486 57.1053 54.9909 57.9944 54.9909 59.0718C54.9909 60.1955 54.8481 61.0851 54.5625 61.7874C54.2769 62.4897 53.8965 63.0515 53.4676 63.4734C53.0397 63.8943 52.5156 64.1757 51.9444 64.3157C51.3736 64.4566 50.8495 64.5498 50.2783 64.5498C49.7075 64.5498 49.1834 64.4566 48.6122 64.3157C48.041 64.1752 47.565 63.8943 47.0889 63.4729C46.6129 63.0515 46.2797 62.4892 45.9936 61.7869C45.708 61.0846 45.5657 60.1482 45.5657 59.0713C45.5657 57.9944 45.7085 57.1053 45.9941 56.403ZM48.3266 60.4296C48.3742 60.8505 48.4694 61.2719 48.6598 61.6001C48.8026 61.9273 49.0406 62.2083 49.2786 62.4424C49.5643 62.6765 49.8975 62.7706 50.2783 62.7706C50.7067 62.7706 51.0404 62.6765 51.2784 62.4424C51.564 62.2083 51.7544 61.9273 51.8972 61.6001C52.0401 61.2719 52.1353 60.8505 52.2305 60.4296C52.2781 60.0082 52.3257 59.54 52.3257 59.1181C52.3257 58.6963 52.2776 58.2285 52.2305 57.8072C52.1824 57.3862 52.0877 56.9644 51.8972 56.6367C51.7068 56.3089 51.5164 56.028 51.2784 55.7939C50.9923 55.5598 50.6596 55.4661 50.2783 55.4661C49.8504 55.4661 49.5167 55.5598 49.2786 55.7939C48.993 56.028 48.8026 56.2621 48.6598 56.6367C48.517 56.9644 48.3737 57.3862 48.3266 57.8072C48.2795 58.2281 48.2314 58.6963 48.2314 59.1181C48.2314 59.54 48.279 59.9614 48.3266 60.4296Z" fill="#0E6B6E"/>
<path d="M62.1313 55.5602C62.1313 55.2325 62.1313 54.9047 62.1313 54.6238C62.1313 54.3429 62.0837 54.062 62.0837 53.8279H64.5115C64.5115 54.1092 64.5591 54.3897 64.5591 54.6238C64.5591 54.9047 64.6071 55.1852 64.6071 55.4193H64.6547C64.7499 55.2325 64.8927 55.092 65.0356 54.8579C65.1788 54.6706 65.3688 54.4365 65.6068 54.2488C65.8448 54.062 66.0828 53.9215 66.416 53.7806C66.7488 53.6406 67.082 53.5938 67.558 53.5938C68.1768 53.5938 68.6528 53.6874 69.0808 53.9215C69.4621 54.1088 69.7948 54.3897 70.0328 54.7643C70.2708 55.1388 70.4613 55.5602 70.5569 56.0284C70.6526 56.4966 70.6997 57.0116 70.6997 57.5262V64.4092H68.1292V58.0417C68.1292 57.1989 68.0345 56.6371 67.7965 56.2625C67.5585 55.8875 67.1772 55.7475 66.654 55.7475C66.3208 55.7475 66.0352 55.7943 65.7972 55.9343C65.5592 56.0743 65.3688 56.262 65.226 56.4498C65.0832 56.6839 64.988 56.918 64.8927 57.2453C64.7975 57.573 64.7975 57.8544 64.7975 58.2285V64.4092H62.2265V55.5602H62.1313Z" fill="#0E6B6E"/>
<path d="M77.6968 61.9278C77.792 61.9746 77.9348 62.0214 78.1247 62.1151C78.3151 62.2082 78.506 62.2555 78.744 62.3492C78.982 62.4423 79.22 62.4896 79.5057 62.5364C79.7913 62.5833 80.0769 62.6296 80.3625 62.6296C80.8385 62.6296 81.2193 62.5364 81.5526 62.3955C81.8858 62.255 82.0286 61.9741 82.0286 61.5527C82.0286 61.3659 81.9334 61.1318 81.7906 60.9441C81.6478 60.7563 81.3145 60.4759 80.8866 60.2418L79.8394 59.6326C79.5533 59.4458 79.2681 59.3054 79.0301 59.1176C78.7445 58.9303 78.5065 58.7431 78.3161 58.509C78.0781 58.2749 77.9353 57.9935 77.7925 57.713C77.6492 57.3857 77.6021 57.0575 77.6021 56.6361C77.6021 56.2616 77.6973 55.8866 77.8401 55.5593C78.0305 55.1842 78.2685 54.9038 78.5541 54.6229C78.8873 54.342 79.2681 54.1079 79.6965 53.9206C80.1726 53.7333 80.6486 53.6396 81.2193 53.6396C81.9334 53.6396 82.5046 53.6865 82.9806 53.8265C83.4566 53.9665 83.7899 54.0133 83.8851 54.0606L83.7423 56.027C83.409 55.8861 83.0758 55.7929 82.7421 55.6993C82.3613 55.6056 81.9805 55.5588 81.5045 55.5588C80.9804 55.5588 80.6 55.652 80.362 55.8397C80.124 56.0275 80.0288 56.2611 80.0288 56.5889C80.0288 56.8702 80.124 57.1043 80.362 57.2912C80.6 57.4784 80.8861 57.7125 81.2665 57.9466L82.5517 58.7426C82.8845 58.9294 83.1706 59.1635 83.4086 59.3513C83.6466 59.539 83.8846 59.7263 84.0274 59.9604C84.1702 60.1472 84.313 60.3813 84.4082 60.6154C84.5034 60.8495 84.551 61.1309 84.551 61.4113C84.551 61.9264 84.4563 62.3478 84.2654 62.7223C84.0745 63.0969 83.7894 63.4246 83.4562 63.706C83.123 63.9869 82.6945 64.1742 82.2185 64.3142C81.7425 64.4551 81.2184 64.5483 80.6 64.5483C79.9341 64.5483 79.3624 64.5015 78.8388 64.3615C78.3151 64.2679 77.9348 64.1274 77.6487 64.0337L77.6968 61.9278Z" fill="#0E6B6E"/>
<path d="M100.023 62.6766C100.023 63.0048 100.023 63.3321 100.023 63.613C100.023 63.8944 100.07 64.1753 100.07 64.4094H97.6902C97.6902 64.128 97.6422 63.8471 97.6422 63.613C97.6422 63.3321 97.5945 63.0516 97.5945 62.8175H97.5469C97.4037 63.0048 97.2609 63.1921 97.1185 63.4262C96.9762 63.6603 96.7853 63.8471 96.5473 64.0348C96.3093 64.2226 96.0713 64.3626 95.7381 64.4562C95.4525 64.5494 95.0721 64.6435 94.6432 64.6435C94.0244 64.6435 93.5484 64.5494 93.1199 64.3153C92.7391 64.1285 92.4059 63.8471 92.1679 63.473C91.9299 63.098 91.74 62.6766 91.6443 62.2084C91.5486 61.7402 91.5015 61.2252 91.5015 60.7106V53.7807H94.0715V60.1488C94.0715 60.9915 94.2148 61.5534 94.4528 61.9279C94.6908 62.303 95.0716 62.443 95.6429 62.443C95.9756 62.443 96.2617 62.3498 96.4997 62.2089C96.7377 62.0689 96.8805 61.8816 97.0233 61.6475C97.1661 61.4134 97.2613 61.1325 97.3094 60.8042C97.357 60.477 97.4041 60.1492 97.4041 59.821V53.7344H99.9747V62.6771H100.023V62.6766Z" fill="#0E6B6E"/>
<path d="M107.687 48.959H110.257V64.4097H107.687V48.959Z" fill="#0E6B6E"/>
<path d="M118.872 51.628L121.443 50.832V53.7812H123.585V55.6541H121.443V61.1325C121.443 61.6939 121.538 62.1157 121.729 62.303C121.919 62.4898 122.205 62.5839 122.586 62.5839C122.824 62.5839 123.014 62.5371 123.157 62.4903C123.3 62.4435 123.443 62.3966 123.538 62.3498V64.1758C123.347 64.269 123.109 64.3626 122.824 64.4099C122.538 64.4567 122.205 64.5031 121.824 64.5031C120.872 64.5031 120.11 64.269 119.587 63.8008C119.063 63.3326 118.825 62.5371 118.825 61.413V55.6541H117.111V53.7812H118.825V51.6275H118.872V51.628Z" fill="#0E6B6E"/>
<path d="M130.536 49.2861H133.202V51.8144H130.536V49.2861ZM130.584 53.7804H133.154V64.4091H130.584V53.7804Z" fill="#0E6B6E"/>
<path d="M140.817 55.5602C140.817 55.2325 140.817 54.9047 140.817 54.6238C140.817 54.3429 140.769 54.062 140.769 53.8279H143.197C143.197 54.1092 143.245 54.3897 143.245 54.6238C143.245 54.8579 143.293 55.1852 143.293 55.4193H143.34C143.436 55.2325 143.578 55.092 143.722 54.8579C143.864 54.6706 144.054 54.4365 144.292 54.2488C144.53 54.062 144.768 53.9215 145.102 53.7806C145.434 53.6406 145.768 53.5938 146.244 53.5938C146.862 53.5938 147.338 53.6874 147.767 53.9215C148.148 54.1088 148.481 54.3897 148.719 54.7643C148.957 55.1388 149.147 55.5602 149.243 56.0284C149.338 56.4966 149.385 57.0116 149.385 57.5262V64.4092H146.72V58.0417C146.72 57.1989 146.624 56.6371 146.386 56.2625C146.148 55.8875 145.768 55.7475 145.244 55.7475C144.911 55.7475 144.625 55.7943 144.387 55.9343C144.149 56.0743 143.959 56.262 143.816 56.4498C143.673 56.6366 143.578 56.918 143.483 57.2453C143.388 57.573 143.388 57.8544 143.388 58.2285V64.4092H140.817V55.5602H140.817Z" fill="#0E6B6E"/>
<path d="M157.049 66.0479C157.335 66.2347 157.763 66.422 158.334 66.6092C158.905 66.8433 159.524 66.937 160.191 66.937C160.809 66.937 161.285 66.8433 161.666 66.6556C162.047 66.4688 162.333 66.2347 162.524 65.9065C162.713 65.5792 162.856 65.251 162.951 64.8296C163 64.4087 163.047 64.0336 163.047 63.6118V62.5832H162.999C162.904 62.7704 162.761 63.0045 162.618 63.1918C162.475 63.4259 162.285 63.6127 162.047 63.7537C161.809 63.9409 161.571 64.0809 161.238 64.175C160.905 64.2682 160.571 64.3619 160.143 64.3619C159.762 64.3619 159.381 64.2682 158.905 64.1278C158.429 63.9873 158.048 63.7068 157.667 63.3318C157.286 62.9572 157.001 62.3954 156.715 61.6931C156.477 60.9908 156.334 60.148 156.334 59.0712C156.334 58.322 156.382 57.6666 156.524 56.9643C156.667 56.3088 156.905 55.7001 157.191 55.2319C157.524 54.7164 157.905 54.3428 158.381 54.0141C158.857 53.7332 159.476 53.5459 160.19 53.5459C160.57 53.5459 160.904 53.5932 161.189 53.6868C161.476 53.7805 161.714 53.9214 161.952 54.1087C162.19 54.2955 162.38 54.4828 162.524 54.6701C162.666 54.9042 162.856 55.1383 163 55.3724H163.094C163.094 55.0914 163.094 54.811 163.142 54.5296C163.142 54.2482 163.19 53.9678 163.19 53.6868H165.522C165.474 53.9678 165.474 54.2482 165.474 54.5296C165.474 54.811 165.474 55.0914 165.474 55.3724V63.1914C165.474 64.0341 165.38 64.7828 165.236 65.4851C165.094 66.1874 164.808 66.7965 164.475 67.3111C164.094 67.8261 163.618 68.2007 162.951 68.4816C162.333 68.7625 161.523 68.903 160.524 68.903C159.667 68.903 158.905 68.8093 158.286 68.6689C157.668 68.4816 157.192 68.3879 156.858 68.2475L157.049 66.0479ZM159.239 60.5694C159.334 61.0376 159.477 61.3658 159.62 61.6931C159.763 61.974 159.953 62.2081 160.144 62.3486C160.334 62.489 160.572 62.5359 160.763 62.5359C161.572 62.5359 162.143 62.2545 162.524 61.6463C162.857 61.0844 163.048 60.148 163.048 58.9775C163.048 57.8543 162.857 57.0111 162.476 56.4497C162.096 55.8874 161.572 55.5601 160.953 55.6065C160.287 55.6065 159.811 55.9342 159.525 56.496C159.239 57.1047 159.097 57.9475 159.097 59.0243C159.096 59.5867 159.144 60.1485 159.239 60.5694Z" fill="#0E6B6E"/>
<path d="M166 43.292H29.3336V44.3689H166V43.292Z" fill="#0E6B6E"/>
<path d="M146.245 13.4219H139.962V39.5476H146.245V13.4219Z" fill="#0E6B6E"/>
<path d="M165.572 13.4219H159.05V39.5476H165.572V13.4219Z" fill="#0E6B6E"/>
<path d="M146.197 17.7762H146.15V31.5413H140.961V13.4219H149.72L152.671 24.7992H152.719L155.956 13.4219H164.524V31.5413H159.193V17.7762H159.145L154.385 31.5413H150.672L146.197 17.7762Z" fill="#0E6B6E"/>
<path d="M164.524 16.9795H155.956L152.767 28.3568H152.719L149.768 16.9795H140.961V31.5874H141.009C141.628 31.5874 142.294 31.5874 142.913 31.5874C143.389 31.5874 143.865 31.5874 144.341 31.5874C144.674 31.5874 145.007 31.5874 145.293 31.5874C145.626 31.5874 145.912 31.5874 146.15 31.5874V21.3338H146.197L149.53 31.5874C151.529 31.5874 153.576 31.5874 155.623 31.5874L159.145 21.3338H159.193V31.5874C161.002 31.5874 162.764 31.5874 164.524 31.5874V16.9795V16.9795Z" fill="#0E6B6E"/>
</svg>
