<svg width="240" height="84" viewBox="0 0 240 84" fill="none" xmlns="http://www.w3.org/2000/svg">
<rect width="240" height="84" fill="#F4F1EB"/>
<path fill-rule="evenodd" clip-rule="evenodd" d="M201 33C201 33.55 201.45 34 202 34H214C214.55 34 215 33.55 215 33V28C215 27.45 215.45 27 216 27C216.55 27 217 27.45 217 28V34C217 35.1 216.1 36 215 36H201C199.9 36 199 35.1 199 34V20C199 18.9 199.89 18 201 18H207C207.55 18 208 18.45 208 19C208 19.55 207.55 20 207 20H202C201.45 20 201 20.45 201 21V33ZM211 20C210.45 20 210 19.55 210 19C210 18.45 210.45 18 211 18H217V24C217 24.55 216.55 25 216 25C215.45 25 215 24.55 215 24V21.41L205.87 30.54C205.48 30.93 204.85 30.93 204.46 30.54C204.07 30.15 204.07 29.52 204.46 29.13L213.59 20H211Z" fill="#514E4E"/>
<g clip-path="url(#clip0_535_1192)">
<path d="M74.1119 50.9534C72.8444 50.4114 71.7259 49.6076 70.7939 48.5609C70.682 48.4301 70.6262 48.3179 70.6262 48.1871C70.6262 48.0562 70.7007 47.9254 70.8311 47.7759L72.9004 45.7759C73.0122 45.6637 73.1427 45.6077 73.2732 45.6077C73.4223 45.6077 73.5528 45.6824 73.6646 45.8132C74.2611 46.43 74.9508 46.916 75.7151 47.2337C76.4794 47.5516 77.2623 47.7197 78.0825 47.7197C78.9399 47.7197 79.6111 47.5516 80.077 47.2337C80.5431 46.916 80.7668 46.4674 80.7668 45.9067C80.7668 45.5329 80.6549 45.1964 80.4498 44.9347C80.2449 44.673 79.872 44.4113 79.3501 44.187C78.8282 43.944 78.1012 43.7011 77.1318 43.4207C75.566 42.9721 74.2052 42.2805 73.0495 41.3646C71.8937 40.4488 71.3158 39.1591 71.3158 37.5142C71.3158 36.5235 71.5768 35.6263 72.0801 34.8039C72.5834 33.9815 73.3477 33.3272 74.3543 32.8413C75.3609 32.3553 76.5912 32.1123 78.0452 32.1123C79.2755 32.1123 80.4312 32.3366 81.5683 32.7665C82.6868 33.1964 83.6934 33.7945 84.5695 34.5422C84.7 34.6544 84.7746 34.7852 84.7746 34.916C84.7746 35.0469 84.7187 35.1777 84.6068 35.2898L82.6868 37.4581C82.5749 37.6076 82.4445 37.6824 82.2953 37.6824C82.1835 37.6824 82.053 37.6264 81.9225 37.5329C81.4006 37.1217 80.8041 36.7852 80.133 36.5048C79.462 36.2245 78.8094 36.0937 78.157 36.0937C77.4114 36.0937 76.8336 36.2245 76.4234 36.4675C76.0133 36.7104 75.7896 37.0842 75.7896 37.5515C75.7896 37.9254 75.9202 38.2432 76.1624 38.4861C76.4048 38.7291 76.7217 38.9534 77.1318 39.1216C77.5232 39.2899 78.1384 39.5142 78.9399 39.7759C78.9773 39.7759 79.0891 39.8132 79.2755 39.8879C80.5617 40.3179 81.6429 40.7852 82.4817 41.2899C83.3206 41.7946 83.9916 42.3926 84.4577 43.1216C84.9424 43.8506 85.1661 44.7478 85.1661 45.7945C85.1661 46.9909 84.8678 48.0376 84.29 48.9534C83.712 49.8506 82.8733 50.5423 81.8293 51.0281C80.7668 51.5141 79.5365 51.7571 78.157 51.7571C76.7403 51.7758 75.3795 51.4955 74.1119 50.9534Z" fill="black"/>
<path d="M90.3668 50.7294C89.0806 49.963 88.0926 48.935 87.3656 47.6453C86.6386 46.3556 86.2845 44.9349 86.2845 43.4022C86.2845 41.8509 86.6199 40.4303 87.3097 39.1406C87.9994 37.8321 88.9501 36.8041 90.1617 36.0378C91.3734 35.2714 92.7529 34.8789 94.2628 34.8789C95.9032 34.8789 97.3385 35.2527 98.5688 35.9817C99.7804 36.7106 100.713 37.72 101.365 39.0098C101.999 40.2995 102.334 41.7574 102.334 43.3836C102.334 43.6639 102.316 43.9817 102.297 44.3369C102.26 44.6546 102.073 44.8041 101.738 44.8041H90.5159C90.7024 45.4958 91.0192 46.0938 91.4293 46.6173C91.8581 47.1219 92.3614 47.5145 92.9392 47.7948C93.5358 48.0565 94.1696 48.206 94.8406 48.206C95.4744 48.206 96.0523 48.1125 96.5556 47.9256C97.0775 47.7387 97.5622 47.477 98.0469 47.1219C98.1588 47.0285 98.2893 46.9911 98.401 46.9911C98.5502 46.9911 98.6807 47.0658 98.7926 47.234L100.228 49.2902C100.321 49.421 100.358 49.5518 100.358 49.6452C100.358 49.7948 100.284 49.9257 100.135 50.0378C99.3704 50.6359 98.5316 51.1032 97.6181 51.4209C96.7047 51.7574 95.6981 51.9069 94.6356 51.9069C93.0883 51.8696 91.653 51.4957 90.3668 50.7294ZM96.8725 39.2901C96.2014 38.7293 95.3813 38.449 94.4119 38.449C93.4612 38.449 92.641 38.7293 91.9326 39.3088C91.2243 39.8882 90.7396 40.6733 90.4973 41.6639H98.2333C97.9909 40.6547 97.5436 39.8695 96.8725 39.2901Z" fill="black"/>
<path d="M126.027 35.5891C126.94 36.1499 127.63 36.9723 128.133 38.0565C128.637 39.1405 128.879 40.4677 128.879 42.0191V50.9349C128.879 51.2901 128.693 51.4771 128.338 51.4771H125.281C124.927 51.4771 124.741 51.2901 124.741 50.9349V42.1873C124.741 41.1032 124.48 40.2434 123.958 39.6265C123.436 38.991 122.709 38.692 121.758 38.692C121.162 38.692 120.621 38.8415 120.155 39.1592C119.67 39.4583 119.279 39.8695 118.999 40.3929C118.701 40.9162 118.552 41.4584 118.515 42.0564V50.9349C118.515 51.2901 118.328 51.4771 117.974 51.4771H114.917C114.563 51.4771 114.376 51.2901 114.376 50.9349V42.1873C114.376 41.1032 114.115 40.2434 113.593 39.6265C113.071 38.991 112.344 38.692 111.394 38.692C110.779 38.692 110.219 38.8602 109.716 39.1967C109.213 39.533 108.821 39.9817 108.542 40.5424C108.262 41.1032 108.113 41.6826 108.113 42.3181V50.9349C108.113 51.2901 107.926 51.4771 107.572 51.4771H104.497C104.142 51.4771 103.956 51.2901 103.956 50.9349V35.6826C103.956 35.3275 104.142 35.1406 104.497 35.1406H106.864C107.181 35.1406 107.386 35.2901 107.479 35.5705L107.777 36.5238C108.393 35.963 109.12 35.5144 109.921 35.2153C110.723 34.9163 111.561 34.748 112.456 34.748C113.537 34.748 114.507 34.9723 115.346 35.4209C116.184 35.8696 116.874 36.5238 117.396 37.3835C118.03 36.5425 118.831 35.8883 119.782 35.4396C120.733 34.991 121.758 34.748 122.858 34.748C124.051 34.748 125.113 35.0284 126.027 35.5891Z" fill="black"/>
<path d="M143.494 36.0004C144.761 36.748 145.768 37.7761 146.513 39.0658C147.259 40.3555 147.632 41.776 147.632 43.3275C147.632 44.8789 147.259 46.2994 146.532 47.5891C145.786 48.8976 144.78 49.9256 143.512 50.6733C142.244 51.4396 140.847 51.8135 139.318 51.8135C138.367 51.8135 137.528 51.6452 136.783 51.3088C136.037 50.9723 135.385 50.5237 134.826 49.9256L134.565 51.0097C134.453 51.3088 134.248 51.4583 133.949 51.4583H131.563C131.209 51.4583 131.023 51.2713 131.023 50.9162V31.963C131.023 31.6078 131.209 31.4209 131.563 31.4209H134.639C134.993 31.4209 135.18 31.6078 135.18 31.963V36.4115C136.298 35.3835 137.678 34.8601 139.318 34.8601C140.828 34.8601 142.226 35.2527 143.494 36.0004ZM141.443 47.2714C142.077 46.8976 142.599 46.3554 142.953 45.6826C143.326 45.0097 143.494 44.2247 143.494 43.3835C143.494 42.5237 143.307 41.7573 142.934 41.0658C142.562 40.3741 142.058 39.8321 141.406 39.4396C140.753 39.0471 140.026 38.8414 139.225 38.8414C138.423 38.8414 137.678 39.0471 137.025 39.4396C136.373 39.8321 135.851 40.3741 135.478 41.0658C135.105 41.7573 134.919 42.5237 134.919 43.3835C134.919 44.2433 135.105 45.0097 135.478 45.6826C135.851 46.3554 136.373 46.8976 137.044 47.2714C137.696 47.6639 138.442 47.8508 139.262 47.8508C140.064 47.8508 140.791 47.6452 141.443 47.2714Z" fill="black"/>
<path d="M153.169 50.7286C151.864 49.9623 150.819 48.9529 150.055 47.6446C149.291 46.3549 148.9 44.9343 148.9 43.3828C148.9 41.8315 149.291 40.3922 150.055 39.0838C150.819 37.7754 151.864 36.7474 153.187 35.981C154.491 35.2146 155.927 34.8408 157.493 34.8408C159.059 34.8408 160.494 35.2146 161.818 35.981C163.142 36.7474 164.185 37.7754 164.949 39.0838C165.713 40.3922 166.105 41.8315 166.105 43.3828C166.105 44.9343 165.713 46.3362 164.949 47.6446C164.166 48.9343 163.123 49.9623 161.799 50.7286C160.476 51.495 159.04 51.8688 157.475 51.8688C155.908 51.8688 154.473 51.495 153.169 50.7286ZM159.73 47.3081C160.401 46.9156 160.941 46.3735 161.352 45.6819C161.744 44.9903 161.948 44.224 161.948 43.3828C161.948 42.5418 161.744 41.7568 161.352 41.0651C160.961 40.3736 160.42 39.8314 159.73 39.4202C159.059 39.0277 158.313 38.8221 157.493 38.8221C156.691 38.8221 155.945 39.0277 155.257 39.4202C154.584 39.8128 154.045 40.3548 153.634 41.0651C153.243 41.7568 153.037 42.5231 153.037 43.3828C153.037 44.224 153.243 44.9903 153.634 45.6819C154.026 46.3735 154.567 46.9156 155.257 47.3081C155.927 47.7006 156.672 47.9062 157.493 47.9062C158.313 47.8876 159.059 47.7006 159.73 47.3081Z" fill="black"/>
<path d="M47.1758 60C57.0928 60 65.1271 51.9439 65.1271 42C65.1271 32.0561 57.0928 24 47.1758 24C37.2588 24 29.2246 32.0561 29.2246 42C29.2246 51.9439 37.2588 60 47.1758 60Z" fill="#B1A8D3"/>
<path d="M58.0248 40.4671C58.994 39.9064 59.3669 38.2989 58.7704 37.2708C58.1366 36.168 56.9436 35.8315 55.8997 36.4297C54.0916 37.4764 52.2647 38.4297 50.4006 39.3082C50.2887 39.3642 50.177 39.4017 50.0651 39.4577C49.9719 38.3175 49.8228 37.1773 49.599 36.0558C49.3008 34.5605 48.8906 33.0839 48.3873 31.6633C48.1824 31.0839 47.9214 30.5979 47.4181 30.2615C46.9706 29.9624 46.4673 29.9063 45.8522 30.0372C45.3302 30.1493 44.9388 30.4671 44.566 30.9344C44.2118 31.4017 44.0627 32.1493 44.3236 32.897C45.0134 34.8409 45.5167 36.8596 45.7963 38.9157C43.7644 37.1025 41.8071 35.196 39.9058 33.2147C39.4957 32.8035 38.9737 32.5231 38.4145 32.5231C37.8925 32.5231 37.3333 32.7474 36.9232 33.2147C36.5317 33.6446 36.2894 34.2428 36.308 34.8783C36.3267 35.4951 36.5131 36.112 36.9232 36.5418C38.8619 38.5605 40.8565 40.4857 42.9256 42.3363C41.9749 42.6726 41.0242 42.9904 40.0549 43.2895C39.011 43.626 37.9671 43.925 36.9046 44.2241C35.842 44.5231 35.0964 45.925 35.4319 47.1025C35.7861 48.3362 36.8673 49.0465 38.023 48.7287C40.5955 48.0185 43.1307 47.196 45.6286 46.2615C45.3116 48.0745 44.8269 49.8316 44.2118 51.5511C44.0254 52.0746 44.1186 52.8409 44.4169 53.3643C44.6964 53.8315 45.1065 54.2615 45.6658 54.4483C46.1877 54.6166 46.7283 54.5792 47.2316 54.2802C47.3995 54.1867 47.5858 53.9998 47.6977 53.8503C47.9214 53.5325 48.145 53.2148 48.2382 52.8222C48.8348 51.2334 49.2821 49.5886 49.599 47.925C50.0091 48.2427 50.4192 48.5605 50.8294 48.8596C52.2088 49.8876 53.6069 50.8969 55.0236 51.8503C55.9556 52.4858 57.3723 52.1119 57.8943 51.0091C58.4349 49.8689 58.1366 48.4857 57.1486 47.8129C55.2659 46.5232 53.4204 45.196 51.5936 43.7941C52.3952 43.4203 53.1967 43.0465 53.9797 42.6353C55.3778 41.9437 56.7012 41.2334 58.0248 40.4671Z" fill="black"/>
<path d="M53.2527 34.9535C54.483 34.9535 55.471 33.9628 55.471 32.7292C55.471 31.4955 54.483 30.5049 53.2527 30.5049C52.0224 30.5049 51.0344 31.4955 51.0344 32.7292C51.0344 33.9628 52.0224 34.9535 53.2527 34.9535Z" fill="black"/>
</g>
<defs>
<clipPath id="clip0_535_1192">
<rect width="138" height="36" fill="white" transform="translate(29 24)"/>
</clipPath>
</defs>
</svg>
