<svg width="303" height="74" viewBox="0 0 303 74" fill="none" xmlns="http://www.w3.org/2000/svg">
<path fill-rule="evenodd" clip-rule="evenodd" d="M76.2889 0C67.2172 0 58.8897 3.20041 52.4013 8.51662L55.0252 15.6144H55.1589C60.6184 10.3516 68.0722 7.09996 76.2889 7.09996C84.532 7.09996 92.0122 10.3739 97.4803 15.6696C91.5704 18.0264 86.7487 22.7597 84.4723 28.884C84.4723 28.884 76.3928 50.7852 76.3495 50.8664C76.2417 50.6518 69.8844 33.3754 65.9407 22.6614H57.6003C62.2986 35.3878 68.0939 51.1181 68.4158 52.0899C70.4686 58.4163 74.5408 59.1984 76.2997 59.2253V59.2274C76.314 59.2274 76.3317 59.2253 76.3495 59.2253C76.3651 59.2253 76.3832 59.2274 76.3992 59.2274V59.2253C78.1591 59.1984 82.2282 58.4163 84.2758 52.0997C84.3918 51.7527 91.8387 31.549 91.8387 31.549C93.605 26.7934 97.7019 23.3058 102.561 22.167C105.108 26.5426 106.567 31.6058 106.567 37.0024C106.567 53.4907 92.9854 66.9035 76.2889 66.9035C75.4395 66.9035 74.5987 66.8612 73.7662 66.7911L76.433 74C97.0247 73.9222 113.757 57.3578 113.757 37.0024C113.757 16.5986 96.9472 0 76.2889 0ZM25.9192 33.5331C25.9192 36.1934 24.901 38.8451 23.1265 40.8348C24.901 42.8207 25.9192 45.4698 25.9192 48.1318C25.9192 54.1262 21.1127 59.0052 15.2053 59.0052H0V22.6614H15.2053C21.1127 22.6614 25.9192 27.537 25.9192 33.5331ZM15.1564 51.6634C17.0119 51.6634 18.5238 50.0437 18.5238 48.0523C18.5238 46.0643 17.0119 44.4459 15.1564 44.4459H7.4391V51.6634H15.1564ZM15.1564 37.1417C17.0119 37.1417 18.5238 35.5229 18.5238 33.534C18.5238 31.5434 17.0119 29.9238 15.1564 29.9238H7.4391V37.1417H15.1564ZM55.0425 29.9268H45.7233V59.0052H38.35V29.9268H29.0269V22.6614H55.0425V29.9268ZM259.453 34.7754H262.064L259.891 29.0024C259.994 28.9152 260.09 28.8246 260.181 28.728L260.178 28.7182L260.247 28.6494C260.758 28.0759 261.076 27.3349 261.15 26.5768C261.15 26.5323 261.153 26.4926 261.153 26.4511C261.16 26.3785 261.169 26.3148 261.169 26.2481C261.169 26.1776 261.16 26.1101 261.153 26.0451C261.153 26.005 261.15 25.9631 261.15 25.9234C261.076 25.1635 260.758 24.4212 260.247 23.8503L260.178 23.7687L260.181 23.7674C259.546 23.0879 258.64 22.6623 257.642 22.6623L252.6 22.6653V34.7754H255.069V29.8362H257.596L259.453 34.7754ZM255.069 24.8939H257.603C258.3 24.8939 258.864 25.4913 258.864 26.2328V26.237V26.2451C258.864 26.9832 258.3 27.5849 257.603 27.5849H255.069V24.8939ZM173.212 24.8943V22.6627H165.29V34.7729H173.212V32.537H167.766V29.8366H171.415V27.6007H167.766V24.8943H173.212ZM219.27 32.0425C219.245 32.0562 219.217 32.0656 219.193 32.078C218.69 32.3289 218.127 32.484 217.528 32.4943C215.437 32.4524 213.742 30.7643 213.742 28.7156C213.742 26.6669 215.435 24.9798 217.528 24.9375C218.147 24.9499 218.736 25.1122 219.253 25.3819L220.047 23.2311C219.286 22.8823 218.443 22.6772 217.552 22.6618H217.535H217.517H217.499C214.153 22.72 211.437 25.4357 211.437 28.7156C211.437 31.9947 214.153 34.7083 217.499 34.772H217.517H217.535H217.552C217.769 34.7677 217.985 34.7541 218.196 34.7263C218.855 34.6438 219.484 34.4596 220.064 34.1913L219.27 32.0425ZM133.596 28.7156L133.668 28.6417C134.251 27.99 134.588 27.1148 134.588 26.2413C134.588 24.2708 133.007 22.6614 131.067 22.6614H126.023V34.7729H131.067C133.007 34.7729 134.588 33.1665 134.588 31.193C134.588 30.3229 134.251 29.4464 133.668 28.7926L133.596 28.7156ZM131.029 32.5131H128.493V31.9998V30.2468V29.8366H131.029C131.727 29.8366 132.282 30.4353 132.282 31.1699C132.282 31.9126 131.727 32.5131 131.029 32.5131ZM131.029 27.5802H128.493V25.1712V24.9101H131.029C131.727 24.9101 132.282 25.5037 132.282 26.2413C132.282 26.9827 131.727 27.5802 131.029 27.5802ZM158.415 22.6618L156.197 28.5622L153.976 22.6682H151.359L154.899 32.0626L153.882 34.766H156.496L161.032 22.6618H158.415ZM231.408 22.6618V27.6045H226.236V22.6618H223.762V34.772H226.236V29.8362H231.408V34.772H233.884V22.6618H231.408ZM203.875 34.7724C206.683 34.7724 207.959 32.9571 207.959 31.2635C207.959 29.0921 205.992 28.3238 204.412 27.7097C203.25 27.261 202.334 26.9092 202.334 26.0922C202.334 25.205 203.163 24.8088 203.978 24.8088C205.042 24.8088 205.968 25.293 206.497 25.637L207.269 23.5499C206.714 23.1922 205.623 22.6623 204.017 22.6623C201.641 22.6623 199.916 24.1165 199.916 26.1199C199.916 28.2528 201.902 29.0652 203.495 29.7229C204.596 30.1686 205.538 30.5588 205.538 31.3319C205.538 32.1255 204.899 32.6383 203.911 32.6383C203.013 32.6383 202.183 32.2584 201.641 31.94C201.623 31.9242 201.195 31.6755 200.708 31.2729L199.901 33.4588C200.019 33.537 200.134 33.6118 200.253 33.6823C200.984 34.1831 202.212 34.7724 203.875 34.7724ZM192.675 34.7729H195.151V22.6627H192.675V34.7729ZM146.869 34.7724H149.474C148.931 33.3058 145.459 23.9011 145.006 22.6623H141.959C141.502 23.9011 138.035 33.3058 137.496 34.7724H140.096C140.238 34.3797 140.619 33.3588 141.096 32.0626H145.874C146.349 33.3588 146.724 34.3797 146.869 34.7724ZM141.921 29.8105C142.448 28.3853 143.006 26.8759 143.481 25.5828C143.959 26.8759 144.519 28.3853 145.043 29.8105H141.921ZM247.093 24.8943V22.6627H239.173V34.7729H247.093V32.537H241.649V29.8366H245.295V27.6007H241.649V24.8943H247.093ZM185.785 34.7754H188.396L186.224 29.0024C186.325 28.9152 186.421 28.8246 186.514 28.728L186.508 28.7182L186.579 28.6494C187.091 28.0759 187.409 27.3349 187.481 26.5768C187.481 26.5323 187.486 26.4926 187.486 26.4511C187.491 26.3785 187.5 26.3148 187.5 26.2481C187.5 26.1776 187.491 26.1101 187.486 26.0451C187.486 26.005 187.481 25.9631 187.481 25.9234C187.409 25.1635 187.091 24.4212 186.579 23.8503L186.508 23.7687L186.514 23.7674C185.879 23.0879 184.973 22.6623 183.974 22.6623L178.931 22.6653V34.7754H181.401V29.8362H183.928L185.785 34.7754ZM181.401 24.8939H183.938C184.632 24.8939 185.195 25.4913 185.195 26.2328V26.237V26.2451C185.195 26.9832 184.632 27.5849 183.938 27.5849H181.401V24.8939ZM272.275 58.9005H274.852C274.314 57.4501 270.88 48.1489 270.432 46.9237H267.419C266.967 48.1489 263.537 57.4501 263.003 58.9005H265.576C265.717 58.5146 266.093 57.5035 266.566 56.2219H271.291C271.758 57.5035 272.129 58.5146 272.275 58.9005ZM267.383 53.9924C267.901 52.5843 268.454 51.0903 268.924 49.8117C269.397 51.0903 269.949 52.5843 270.47 53.9924H267.383ZM296.735 46.8997H292.942V58.8774L296.735 58.8749C300.042 58.8108 302.727 56.1279 302.727 52.8911C302.727 49.6459 300.042 46.9574 296.735 46.8997ZM296.674 56.6262H295.39V49.1506H296.68C298.761 49.1762 300.449 50.8501 300.449 52.8911C300.449 54.9223 298.758 56.6001 296.674 56.6262ZM245.514 58.8779H248.095L245.947 53.1689C246.05 53.0826 246.143 52.9907 246.235 52.8958L246.229 52.8903L246.298 52.8189C246.804 52.2518 247.12 51.5168 247.192 50.7702C247.192 50.7266 247.195 50.6856 247.195 50.6446C247.201 50.5724 247.21 50.5095 247.21 50.4407C247.21 50.3771 247.201 50.307 247.195 50.2429C247.195 50.204 247.192 50.1617 247.192 50.1236C247.12 49.3707 246.804 48.6348 246.298 48.0715L246.229 47.9916L246.235 47.9873C245.603 47.3181 244.711 46.8967 243.722 46.8967L238.733 46.9002V58.8779H241.177V53.9929H243.677L245.514 58.8779ZM241.177 49.1053H243.684C244.374 49.1053 244.929 49.695 244.929 50.4292V50.4326V50.4407C244.929 51.1715 244.374 51.7668 243.684 51.7668H241.177V49.1053ZM259.289 52.9104L259.358 52.8373C259.938 52.1924 260.27 51.3309 260.27 50.463C260.27 48.5138 258.706 46.9245 256.785 46.9245H251.798V58.9001H256.785C258.706 58.9001 260.27 57.3125 260.27 55.3616C260.27 54.4997 259.938 53.6317 259.358 52.9852L259.289 52.9104ZM256.75 56.6672H254.242V56.1582V54.4253V54.0168H256.75C257.439 54.0168 257.99 54.6108 257.99 55.3377C257.99 56.0719 257.439 56.6672 256.75 56.6672ZM256.75 51.7882H254.242V49.4044V49.145H256.75C257.439 49.145 257.99 49.7352 257.99 50.463C257.99 51.1971 257.439 51.7882 256.75 51.7882ZM193.966 58.9296C196.769 58.9296 198.047 57.1125 198.047 55.4206C198.047 53.242 196.082 52.4805 194.496 51.8655C193.34 51.4155 192.425 51.0587 192.425 50.2407C192.425 49.3566 193.248 48.9591 194.068 48.9591C195.132 48.9591 196.057 49.4437 196.588 49.7877L197.36 47.7031C196.809 47.348 195.712 46.8155 194.102 46.8155C191.731 46.8155 190.003 48.2702 190.003 50.2741C190.003 52.4125 191.991 53.2236 193.585 53.8762C194.68 54.3262 195.627 54.7099 195.627 55.492C195.627 56.2792 194.99 56.7881 194.003 56.7881C193.099 56.7881 192.27 56.4112 191.731 56.095C191.706 56.0804 191.28 55.8283 190.798 55.4236L189.995 57.6133C190.108 57.6941 190.221 57.7693 190.344 57.8381C191.074 58.3356 192.301 58.9296 193.966 58.9296ZM182.777 58.8774H185.224V46.8997H182.777V58.8774ZM220.593 46.9091L217.274 55.7313L213.95 46.9091H211.366L215.877 58.8774H218.672L223.178 46.9091H220.593ZM285.199 46.8997V56.3783L281.639 46.8997H277.804V58.8774H280.252V49.3924L283.814 58.8685L287.648 58.8774V46.8997H285.199ZM175.08 46.8997V56.3783L171.517 46.8997H167.682V58.8774H170.133V49.3924L173.694 58.8685L177.529 58.8774V46.8997H175.08ZM160.008 46.8997V56.3783L156.447 46.8997H152.61V58.8774H155.062V49.3924L158.622 58.8685L162.457 58.8774V46.8997H160.008ZM148.012 49.1078V46.9002H140.179V58.8779H148.012V56.6668H142.626V53.9988H146.234V51.7877H142.626V49.1078H148.012ZM202.118 51.7608V53.9826H207.548L208.369 51.7608H202.118ZM234.263 49.1078V46.9002H226.428V58.8779H234.263V56.6668H228.877V53.9988H232.485V51.7877H228.877V49.1078H234.263ZM136.296 46.8997H126.005V49.1074H129.926V58.8774H132.374V49.1074H136.296V46.8997Z" fill="#015A78"/>
</svg>
