<svg width="366" height="74" viewBox="0 0 366 74" fill="none" xmlns="http://www.w3.org/2000/svg">
<path d="M74.4018 0.0585938H0V73.3479H74.7793C84.5146 48.5345 82.9609 20.8914 74.4018 0.0585938Z" fill="#CCD7E6"/>
<path d="M148.577 73.3494L74.7794 73.3486C84.1068 49.4246 83.288 21.2153 74.4004 0.0585938L148.577 0.0600591V73.3494Z" fill="#003366"/>
<path fill-rule="evenodd" clip-rule="evenodd" d="M62.4348 32.8434V16.737L67.0833 16.7377C70.0809 16.7377 73.1246 18.7299 73.726 22.7838C73.726 22.7838 73.9426 24.041 73.9025 24.8484C73.9166 25.5599 73.726 26.6647 73.726 26.6647C73.3367 30.3383 70.4317 32.8558 67.1434 32.8558L62.4348 32.8434ZM68.31 36.9815H58.7571C58.0718 36.9815 57.5156 36.4364 57.5156 35.7521V13.7836C57.5305 13.1315 58.0044 12.6589 58.6681 12.6472L67.4059 12.6465C73.2811 12.6465 77.1931 15.8981 78.3256 20.8788C78.3256 20.8788 78.7372 23.1208 78.7505 24.5693C78.7639 26.0771 78.3612 28.4151 78.3612 28.4151C77.7249 33.1357 73.1587 36.9815 68.31 36.9815Z" fill="#003366"/>
<path fill-rule="evenodd" clip-rule="evenodd" d="M136.44 13.8483C137.041 13.1853 136.983 12.6475 136.312 12.6475H133.016C132.345 12.6475 132.008 12.5757 130.929 13.6417L121.72 23.4977L121.695 13.8483C121.695 13.1853 121.151 12.6475 120.479 12.6475H118.24C117.569 12.6475 117.025 13.1853 117.025 13.8483L117.023 35.7692C117.023 36.4323 117.568 36.9701 118.239 36.9701H120.488C121.159 36.9701 121.704 36.4323 121.704 35.7692L121.705 30.0375L125.795 25.6708L132.113 35.7692C132.523 36.4323 133.1 36.9701 133.772 36.9701H137.145C137.816 36.9701 138.028 36.4323 137.618 35.7692L128.905 22.2397L136.44 13.8483Z" fill="white"/>
<path fill-rule="evenodd" clip-rule="evenodd" d="M83.416 35.8446C83.416 36.5077 83.9604 37.0455 84.6315 37.0455H87.0915C87.7627 37.0455 88.3181 36.3751 88.3181 35.712V13.9223C88.3181 13.2592 87.7738 12.7207 87.1026 12.7207H84.6441C83.973 12.7207 83.4286 13.2585 83.4286 13.9223L83.416 35.8446Z" fill="white"/>
<path fill-rule="evenodd" clip-rule="evenodd" d="M107.604 13.9223C107.604 13.2592 108.148 12.7207 108.82 12.7207H111.251C111.922 12.7207 112.467 13.2585 112.467 13.9223L112.464 35.8439C112.464 36.5077 111.919 37.0455 111.248 37.0455H108.834C108.163 37.0455 107.597 36.5077 107.597 35.8439V26.8137H97.7283L97.7297 35.8439C97.7297 36.5077 97.1861 37.0455 96.5142 37.0455H94.0847C93.4127 37.0455 92.8691 36.5077 92.8691 35.8439V13.9223C92.8691 13.2592 93.4135 12.7207 94.0854 12.7207H96.5224C97.1935 12.7207 97.7379 13.2585 97.7379 13.9223L97.7386 22.7415H107.61L107.604 13.9223Z" fill="white"/>
<path d="M160.412 27.4766H162.116V37.2683H160.412V27.4766Z" fill="#4A4A4A"/>
<path d="M169.794 37.2679V32.5848C169.794 31.4215 169.24 30.3574 167.916 30.3574C166.925 30.3574 166.226 30.9112 165.862 31.7766H165.833V30.5133H164.217V37.2679H165.833V34.3447C165.833 33.4365 166.299 31.8332 167.463 31.8332C167.623 31.8332 167.812 31.8477 167.93 31.9607C168.206 32.2159 168.177 33.0813 168.177 33.4082V37.2687H169.794V37.2679Z" fill="#4A4A4A"/>
<path d="M177.168 37.2683V27.4766H175.552V31.3225H175.522C175.158 30.6984 174.532 30.3577 173.789 30.3577C171.867 30.3577 171.416 32.401 171.416 33.8913C171.416 35.4526 171.766 37.4248 173.789 37.4248C174.431 37.4248 175.275 36.9283 175.522 36.3325H175.552V37.269H177.168V37.2683ZM175.552 33.8906C175.552 34.6284 175.363 36.2035 174.328 36.2035C173.207 36.2035 173.135 34.6712 173.135 33.8906C173.135 33.0672 173.163 31.5776 174.328 31.5776C175.45 31.5776 175.552 33.1099 175.552 33.8906Z" fill="#4A4A4A"/>
<path d="M184.751 37.2683V30.5137H183.134V33.4369C183.134 34.3451 182.668 35.9484 181.503 35.9484C181.343 35.9484 181.154 35.9347 181.038 35.8209C180.761 35.5657 180.79 34.7003 180.79 34.3734V30.5137H179.174V35.1961C179.174 36.3594 179.726 37.4242 181.052 37.4242C182.028 37.4242 182.741 36.8566 183.105 36.005H183.134V37.2676H184.751V37.2683Z" fill="#4A4A4A"/>
<path d="M190.814 35.395C190.814 33.4648 187.77 33.0103 187.77 32.1166C187.77 31.6628 188.484 31.4925 188.847 31.4925C189.401 31.4925 189.91 31.7063 190.391 31.947V30.6126C189.866 30.4705 189.358 30.3574 188.818 30.3574C187.522 30.3574 186.328 30.9395 186.328 32.3442C186.328 34.1323 189.313 34.7992 189.313 35.5936C189.313 36.1328 188.527 36.2032 188.119 36.2032C187.508 36.2032 186.911 36.0328 186.357 35.7922V37.1534C186.954 37.339 187.566 37.4238 188.191 37.4238C189.547 37.4238 190.814 36.899 190.814 35.395Z" fill="#4A4A4A"/>
<path d="M196.572 31.6056V30.5133H194.519V27.959L192.902 28.91V30.514H191.549V31.6063H192.902V35.5653C192.902 36.97 193.616 37.4238 195.028 37.4238C195.466 37.4238 195.916 37.3817 196.352 37.3107V36.2032C196.105 36.2604 195.858 36.317 195.611 36.317C194.606 36.317 194.518 35.5929 194.518 34.7985V31.6056H196.572Z" fill="#4A4A4A"/>
<path d="M201.571 32.0035V30.3574C200.406 30.3574 199.867 30.8257 199.328 31.7621H199.299V30.5133H197.684V37.2679H199.299V34.3019C199.299 32.7138 199.91 32.0035 201.571 32.0035Z" fill="#4A4A4A"/>
<path d="M204.59 29.0378V27.4766H202.973V29.0378H204.59ZM204.59 37.2683V30.5136H202.973V37.2683H204.59Z" fill="#4A4A4A"/>
<path d="M211.917 33.4793V33.0958C211.917 31.4505 211.042 30.3574 209.282 30.3574C207.213 30.3574 206.311 31.6201 206.311 33.5351C206.311 35.7639 207.345 37.4238 209.806 37.4238C210.461 37.4238 211.115 37.3527 211.742 37.1534V36.0611C211.333 36.2024 210.854 36.317 210.418 36.317C208.845 36.317 207.81 34.9122 207.81 33.4785H211.917V33.4793ZM210.388 32.5283H207.855C207.928 31.8477 208.466 31.3649 209.165 31.3649C209.908 31.3642 210.388 31.8042 210.388 32.5283Z" fill="#4A4A4A"/>
<path d="M213.207 32.8398H218.624V34.3729H213.207V32.8398Z" fill="#4A4A4A"/>
<path d="M230.287 37.2683V30.5137H228.672V33.4369C228.672 34.3451 228.205 35.9484 227.041 35.9484C226.881 35.9484 226.691 35.9347 226.574 35.8209C226.298 35.5657 226.327 34.7003 226.327 34.3734V30.5137H224.711V35.1961C224.711 36.3594 225.264 37.4242 226.59 37.4242C227.565 37.4242 228.278 36.8566 228.642 36.005H228.672V37.2676H230.287V37.2683Z" fill="#4A4A4A"/>
<path d="M237.925 37.2679V32.5848C237.925 31.4215 237.372 30.3574 236.046 30.3574C235.057 30.3574 234.357 30.9112 233.993 31.7766H233.965V30.5133H232.348V37.2679H233.965V34.3447C233.965 33.4365 234.43 31.8332 235.596 31.8332C235.755 31.8332 235.945 31.8477 236.061 31.9607C236.337 32.2159 236.308 33.0813 236.308 33.4082V37.2687H237.925V37.2679Z" fill="#4A4A4A"/>
<path d="M245.298 37.2683V27.4766H243.682V31.3225H243.653C243.289 30.6984 242.663 30.3577 241.921 30.3577C239.998 30.3577 239.547 32.401 239.547 33.8913C239.547 35.4526 239.896 37.4248 241.921 37.4248C242.561 37.4248 243.406 36.9283 243.653 36.3325H243.682V37.269H245.298V37.2683ZM243.682 33.8906C243.682 34.6284 243.493 36.2035 242.459 36.2035C241.336 36.2035 241.264 34.6712 241.264 33.8906C241.264 33.0672 241.293 31.5776 242.459 31.5776C243.58 31.5776 243.682 33.1099 243.682 33.8906Z" fill="#4A4A4A"/>
<path d="M258.787 37.2683V27.4766H257.082V31.5349H253.471V27.4766H251.768V37.2683H253.471V32.7982H257.082V37.2683H258.787Z" fill="#4A4A4A"/>
<path d="M266.001 37.2679V32.4572C266.001 30.8967 264.953 30.3574 263.482 30.3574C262.04 30.3574 260.845 30.9532 260.845 32.5H262.418C262.418 31.8332 262.783 31.4642 263.482 31.4642C264.282 31.4642 264.458 32.0318 264.458 32.6993V33.3662C262.884 33.4082 260.584 33.622 260.584 35.6508C260.584 36.7997 261.516 37.4245 262.623 37.4245C263.38 37.4245 264.078 37.1831 264.429 36.488H264.458V37.2679H266.001ZM264.458 34.2874C264.458 35.1529 264.093 36.317 263.015 36.317C262.477 36.317 262.158 36.0473 262.158 35.508C262.157 34.486 263.685 34.2874 264.458 34.2874Z" fill="#4A4A4A"/>
<path d="M273.58 37.2679V32.5848C273.58 31.4215 273.025 30.3574 271.701 30.3574C270.712 30.3574 270.012 30.9112 269.647 31.7766H269.617V30.5133H268.002V37.2679H269.617V34.3447C269.617 33.4365 270.085 31.8332 271.249 31.8332C271.409 31.8332 271.598 31.8477 271.716 31.9607C271.992 32.2159 271.963 33.0813 271.963 33.4082V37.2687H273.58V37.2679Z" fill="#4A4A4A"/>
<path d="M280.955 37.2683V27.4766H279.339V31.3225H279.31C278.946 30.6984 278.32 30.3577 277.576 30.3577C275.654 30.3577 275.203 32.401 275.203 33.8913C275.203 35.4526 275.553 37.4248 277.576 37.4248C278.217 37.4248 279.061 36.9283 279.31 36.3325H279.339V37.269H280.955V37.2683ZM279.339 33.8906C279.339 34.6284 279.149 36.2035 278.114 36.2035C276.993 36.2035 276.921 34.6712 276.921 33.8906C276.921 33.0672 276.95 31.5776 278.114 31.5776C279.237 31.5776 279.339 33.1099 279.339 33.8906Z" fill="#4A4A4A"/>
<path d="M288.16 33.4793V33.0958C288.16 31.4505 287.285 30.3574 285.523 30.3574C283.456 30.3574 282.553 31.6201 282.553 33.5351C282.553 35.7639 283.587 37.4238 286.047 37.4238C286.702 37.4238 287.358 37.3527 287.984 37.1534V36.0611C287.576 36.2024 287.096 36.317 286.66 36.317C285.088 36.317 284.052 34.9122 284.052 33.4785H288.16V33.4793ZM286.629 32.5283H284.097C284.169 31.8477 284.707 31.3649 285.407 31.3649C286.15 31.3642 286.629 31.8042 286.629 32.5283Z" fill="#4A4A4A"/>
<path d="M289.855 27.4766H291.472V37.2683H289.855V27.4766Z" fill="#4A4A4A"/>
<path d="M297.621 35.395C297.621 33.4648 294.578 33.0103 294.578 32.1166C294.578 31.6628 295.291 31.4925 295.656 31.4925C296.209 31.4925 296.719 31.7063 297.198 31.947V30.6126C296.675 30.4705 296.165 30.3574 295.626 30.3574C294.33 30.3574 293.137 30.9395 293.137 32.3442C293.137 34.1323 296.122 34.7992 296.122 35.5936C296.122 36.1328 295.335 36.2032 294.928 36.2032C294.316 36.2032 293.718 36.0328 293.166 35.7922V37.1534C293.764 37.339 294.375 37.4238 295 37.4238C296.354 37.4238 297.621 36.899 297.621 35.395Z" fill="#4A4A4A"/>
<path d="M305.067 37.2683L302.27 33.4368L304.835 30.5136H302.897L300.655 33.0954V27.4766H299.039V37.2683H300.655V33.8623H300.685L303.131 37.2683H305.067Z" fill="#4A4A4A"/>
<path d="M311.204 37.2679V32.4572C311.204 30.8967 310.155 30.3574 308.685 30.3574C307.243 30.3574 306.05 30.9532 306.05 32.5H307.621C307.621 31.8332 307.986 31.4642 308.685 31.4642C309.485 31.4642 309.66 32.0318 309.66 32.6993V33.3662C308.089 33.4082 305.787 33.622 305.787 35.6508C305.787 36.7997 306.719 37.4245 307.826 37.4245C308.582 37.4245 309.281 37.1831 309.631 36.488H309.66V37.2679H311.204ZM309.66 34.2874C309.66 35.1529 309.296 36.317 308.218 36.317C307.679 36.317 307.359 36.0473 307.359 35.508C307.359 34.486 308.889 34.2874 309.66 34.2874Z" fill="#4A4A4A"/>
<path d="M322.279 37.2679V32.5848C322.279 31.4215 321.726 30.3574 320.4 30.3574C319.526 30.3574 318.755 30.925 318.448 31.7056H318.421C318.231 30.8402 317.575 30.3574 316.672 30.3574C315.827 30.3574 315.188 30.7974 314.852 31.549H314.823V30.5133H313.207V37.2679H314.823V34.3447C314.823 33.5641 315.173 31.8332 316.222 31.8332C316.381 31.8332 316.571 31.8477 316.686 31.9607C316.963 32.2159 316.934 33.0813 316.934 33.4082V37.2686H318.552V34.3454C318.552 33.5648 318.901 31.8339 319.949 31.8339C320.109 31.8339 320.299 31.8484 320.416 31.9615C320.692 32.2166 320.663 33.082 320.663 33.4089V37.2694H322.279V37.2679Z" fill="#4A4A4A"/>
<path d="M333.395 37.2679V32.5848C333.395 31.4215 332.843 30.3574 331.517 30.3574C330.643 30.3574 329.871 30.925 329.566 31.7056H329.538C329.348 30.8402 328.692 30.3574 327.789 30.3574C326.945 30.3574 326.304 30.7974 325.969 31.549H325.94V30.5133H324.324V37.2679H325.94V34.3447C325.94 33.5641 326.29 31.8332 327.339 31.8332C327.499 31.8332 327.688 31.8477 327.804 31.9607C328.08 32.2159 328.051 33.0813 328.051 33.4082V37.2686H329.669V34.3454C329.669 33.5648 330.019 31.8339 331.067 31.8339C331.226 31.8339 331.415 31.8484 331.532 31.9615C331.809 32.2166 331.779 33.082 331.779 33.4089V37.2694H333.395V37.2679Z" fill="#4A4A4A"/>
<path d="M340.627 33.4793V33.0958C340.627 31.4505 339.754 30.3574 337.992 30.3574C335.924 30.3574 335.021 31.6201 335.021 33.5351C335.021 35.7639 336.055 37.4238 338.516 37.4238C339.172 37.4238 339.827 37.3527 340.453 37.1534V36.0611C340.046 36.2024 339.565 36.317 339.129 36.317C337.556 36.317 336.521 34.9122 336.521 33.4785H340.627V33.4793ZM339.098 32.5283H336.566C336.637 31.8477 337.176 31.3649 337.875 31.3649C338.617 31.3642 339.098 31.8042 339.098 32.5283Z" fill="#4A4A4A"/>
<path d="M346.11 32.0035V30.3574C344.946 30.3574 344.406 30.8257 343.867 31.7621H343.838V30.5133H342.223V37.2679H343.838V34.3019C343.838 32.7138 344.451 32.0035 346.11 32.0035Z" fill="#4A4A4A"/>
<path d="M351.749 31.6056V30.5133H349.696V27.959L348.08 28.91V30.514H346.727V31.6063H348.08V35.5653C348.08 36.97 348.794 37.4238 350.205 37.4238C350.643 37.4238 351.094 37.3817 351.53 37.3107V36.2032C351.282 36.2604 351.035 36.317 350.788 36.317C349.782 36.317 349.695 35.5929 349.695 34.7985V31.6056H351.749Z" fill="#4A4A4A"/>
<path d="M357.958 37.2679V32.4572C357.958 30.8967 356.909 30.3574 355.439 30.3574C353.997 30.3574 352.803 30.9532 352.803 32.5H354.374C354.374 31.8332 354.739 31.4642 355.439 31.4642C356.238 31.4642 356.414 32.0318 356.414 32.6993V33.3662C354.842 33.4082 352.541 33.622 352.541 35.6508C352.541 36.7997 353.472 37.4245 354.58 37.4245C355.337 37.4245 356.035 37.1831 356.384 36.488H356.414V37.2679H357.958ZM356.413 34.2874C356.413 35.1529 356.049 36.317 354.972 36.317C354.432 36.317 354.113 36.0473 354.113 35.508C354.113 34.486 355.643 34.2874 356.413 34.2874Z" fill="#4A4A4A"/>
<path d="M365.274 37.7362V30.5133H363.731V31.3222H363.702C363.251 30.6553 362.755 30.3574 361.91 30.3574C360.074 30.3574 359.537 32.2731 359.537 33.7344C359.537 35.2812 359.93 37.2679 361.91 37.2679C362.697 37.2679 363.308 36.8569 363.702 36.2177H363.731V37.2679C363.731 38.474 363.308 39.2402 361.941 39.2402C361.153 39.2402 360.469 39.0126 359.8 38.6444V40.1912C360.513 40.3608 361.225 40.4608 361.968 40.4608C363.905 40.4608 365.274 39.8222 365.274 37.7362ZM363.731 33.7344C363.731 34.4723 363.468 36.0473 362.449 36.0473C361.328 36.0473 361.255 34.5281 361.255 33.7344C361.255 32.9538 361.357 31.5773 362.449 31.5773C363.498 31.5773 363.731 32.9538 363.731 33.7344Z" fill="#4A4A4A"/>
<path d="M167.373 18.1446C167.373 14.9517 166.455 13.2773 162.96 13.2773H160.471V23.069H162.96C163.615 23.069 164.286 23.04 164.912 22.8422C167.009 22.1891 167.373 20.032 167.373 18.1446ZM165.493 18.1446C165.493 19.2086 165.45 20.954 164.387 21.5933C163.965 21.8339 163.441 21.8912 162.96 21.8912H162.174V14.4559H162.96C165.348 14.4559 165.493 16.2716 165.493 18.1446Z" fill="#4A4A4A"/>
<path d="M174.266 19.28V18.8966C174.266 17.2512 173.393 16.1582 171.631 16.1582C169.563 16.1582 168.66 17.4216 168.66 19.3366C168.66 21.5647 169.694 23.2253 172.154 23.2253C172.809 23.2253 173.465 23.1542 174.091 22.9549V21.8626C173.684 22.0047 173.203 22.1185 172.766 22.1185C171.193 22.1185 170.16 20.7137 170.16 19.28H174.266ZM172.738 18.3291H170.203C170.276 17.6477 170.815 17.165 171.514 17.165C172.257 17.165 172.738 17.605 172.738 18.3291Z" fill="#4A4A4A"/>
<path d="M181.454 23.0691V16.3145H179.838V19.2377C179.838 20.1452 179.372 21.7492 178.207 21.7492C178.047 21.7492 177.858 21.7347 177.741 21.6216C177.464 21.3665 177.493 20.5011 177.493 20.1742V16.3145H175.877V20.9968C175.877 22.1595 176.43 23.2242 177.755 23.2242C178.731 23.2242 179.444 22.6567 179.809 21.805H179.838V23.0684H181.454V23.0691Z" fill="#4A4A4A"/>
<path d="M187.823 17.4064V16.3141H185.77V13.7598L184.153 14.7107V16.3148H182.799V17.4071H184.153V21.3661C184.153 22.7708 184.867 23.2246 186.28 23.2246C186.716 23.2246 187.168 23.1818 187.604 23.1108V22.0039C187.357 22.0605 187.11 22.1177 186.862 22.1177C185.857 22.1177 185.77 21.3936 185.77 20.5992V17.4064H187.823Z" fill="#4A4A4A"/>
<path d="M192.969 21.1965C192.969 19.2663 189.925 18.8125 189.925 17.9188C189.925 17.4643 190.639 17.294 191.003 17.294C191.556 17.294 192.066 17.5071 192.546 17.7485V16.4141C192.022 16.2727 191.513 16.1582 190.973 16.1582C189.678 16.1582 188.482 16.7402 188.482 18.145C188.482 19.9331 191.468 20.5999 191.468 21.3944C191.468 21.9336 190.682 22.0047 190.273 22.0047C189.662 22.0047 189.066 21.8336 188.512 21.5937V22.9549C189.109 23.1397 189.721 23.2253 190.346 23.2253C191.701 23.2253 192.969 22.7005 192.969 21.1965Z" fill="#4A4A4A"/>
<path d="M199.775 18.6277C199.775 16.9671 198.829 16.1582 197.139 16.1582C195.057 16.1582 193.965 17.4353 193.965 19.3938C193.965 21.7495 195.202 23.2253 197.678 23.2253C198.361 23.2253 199.047 23.1115 199.702 22.9136V21.9481C199.322 22.0757 198.93 22.1185 198.537 22.1185C196.702 22.1185 195.684 20.8123 195.684 19.1104C195.684 18.3015 195.989 17.2657 197.008 17.2657C197.852 17.2657 198.056 17.9319 198.056 18.6277H199.775Z" fill="#4A4A4A"/>
<path d="M206.521 23.069V18.3859C206.521 17.2226 205.969 16.1578 204.643 16.1578C203.653 16.1578 202.954 16.7116 202.59 17.577H202.561V13.2773H200.945V23.069H202.561V20.1451C202.561 19.2376 203.027 17.6336 204.191 17.6336C204.351 17.6336 204.541 17.6481 204.658 17.7611C204.934 18.017 204.904 18.8817 204.904 19.2086V23.069H206.521Z" fill="#4A4A4A"/>
<path d="M213.752 19.28V18.8966C213.752 17.2512 212.877 16.1582 211.115 16.1582C209.048 16.1582 208.145 17.4216 208.145 19.3366C208.145 21.5647 209.179 23.2253 211.64 23.2253C212.294 23.2253 212.95 23.1542 213.576 22.9549V21.8626C213.169 22.0047 212.688 22.1185 212.252 22.1185C210.68 22.1185 209.645 20.7137 209.645 19.28H213.752ZM212.221 18.3291H209.689C209.762 17.6477 210.299 17.165 210.998 17.165C211.741 17.165 212.221 17.605 212.221 18.3291Z" fill="#4A4A4A"/>
<path d="M219.233 17.8043V16.1582C218.069 16.1582 217.529 16.6264 216.991 17.5629H216.961V16.3148H215.346V23.0694H216.961V20.1034C216.961 18.5146 217.573 17.8043 219.233 17.8043Z" fill="#4A4A4A"/>
</svg>
