<svg width="240" height="84" viewBox="0 0 240 84" fill="none" xmlns="http://www.w3.org/2000/svg">
<rect width="240" height="84" fill="white"/>
<path fill-rule="evenodd" clip-rule="evenodd" d="M201 33C201 33.55 201.45 34 202 34H214C214.55 34 215 33.55 215 33V28C215 27.45 215.45 27 216 27C216.55 27 217 27.45 217 28V34C217 35.1 216.1 36 215 36H201C199.9 36 199 35.1 199 34V20C199 18.9 199.89 18 201 18H207C207.55 18 208 18.45 208 19C208 19.55 207.55 20 207 20H202C201.45 20 201 20.45 201 21V33ZM211 20C210.45 20 210 19.55 210 19C210 18.45 210.45 18 211 18H217V24C217 24.55 216.55 25 216 25C215.45 25 215 24.55 215 24V21.41L205.87 30.54C205.48 30.93 204.85 30.93 204.46 30.54C204.07 30.15 204.07 29.52 204.46 29.13L213.59 20H211Z" fill="#514E4E"/>
<mask id="mask0" mask-type="alpha" maskUnits="userSpaceOnUse" x="14" y="18" width="47" height="48">
<path d="M14 18.2886H60.9998V65.3465H14V18.2886Z" fill="white"/>
</mask>
<g mask="url(#mask0)">
<path fill-rule="evenodd" clip-rule="evenodd" d="M57.1524 51.9352C52.3369 61.3046 41.5084 65.993 31.388 63.0918C29.9985 62.6926 28.6453 62.1568 27.3638 61.4994C26.5697 61.09 25.7967 60.628 25.0258 60.1031C24.7005 59.8625 24.3874 59.6103 24.0819 59.3513C23.9774 59.2618 23.8776 59.1681 23.7751 59.0772C23.5789 58.9023 23.3841 58.7253 23.1962 58.5421C23.0821 58.4307 22.9713 58.3166 22.8606 58.2024C22.6925 58.0302 22.5278 57.8545 22.3672 57.6762C22.2585 57.5545 22.1505 57.4322 22.0453 57.3078C21.8901 57.1239 21.7398 56.9367 21.5928 56.7481C21.4958 56.6243 21.398 56.5013 21.3044 56.3756C21.1465 56.1617 20.9969 55.9416 20.8486 55.7208C20.7775 55.6156 20.7023 55.5131 20.634 55.4058C20.4276 55.0832 20.2307 54.7544 20.0455 54.4196C19.9881 54.315 19.9368 54.207 19.8808 54.1011C19.7544 53.8612 19.63 53.6199 19.5145 53.3746C19.4482 53.2331 19.388 53.0903 19.3252 52.9474C19.2302 52.7308 19.1372 52.5134 19.0511 52.2934C18.9916 52.141 18.9349 51.9879 18.8796 51.8341C18.801 51.6154 18.7265 51.3953 18.6561 51.1739C18.6075 51.0201 18.559 50.8663 18.5146 50.7119C18.4463 50.4754 18.3861 50.2369 18.328 49.9984C18.2932 49.8569 18.2556 49.7161 18.2248 49.5739C18.1558 49.2561 18.097 48.9356 18.0451 48.6137C18.0348 48.5488 18.0198 48.4852 18.0102 48.4203C17.9528 48.0376 17.9104 47.6521 17.8783 47.2653C17.8667 47.1327 17.8633 46.9994 17.8551 46.8668C17.8394 46.6051 17.8257 46.3426 17.8216 46.0795C17.8189 45.925 17.8216 45.7699 17.823 45.6154C17.8243 45.4828 17.8305 45.3496 17.8353 45.217C17.8394 45.2279 17.8455 45.2389 17.8503 45.2498C17.4279 44.2315 17.0876 43.1714 16.8415 42.0759L16.8115 41.9378C16.739 42.2932 16.6748 42.6493 16.6228 43.006C16.6044 43.1297 16.5893 43.2534 16.5736 43.3772C16.534 43.6881 16.5025 43.9984 16.4779 44.3094C16.4697 44.4221 16.4581 44.5342 16.4513 44.6463C16.4274 45.0516 16.4144 45.4555 16.4157 45.8587C16.4164 45.9442 16.4212 46.0296 16.4226 46.1143C16.428 46.4451 16.4424 46.7746 16.465 47.1033C16.4732 47.2256 16.4827 47.348 16.4937 47.4703C16.5237 47.81 16.562 48.149 16.6105 48.4852C16.6201 48.5542 16.6269 48.6233 16.6372 48.6916C16.6905 49.0415 16.7527 49.3894 16.8251 49.7352C14.6456 44.0339 14.8329 37.4831 17.7997 31.7094C19.5199 28.366 22.0753 25.5017 25.1898 23.4261C26.9005 22.2874 28.7505 21.3921 30.671 20.7722C31.0312 20.669 31.3934 20.5816 31.7563 20.5009C31.8561 20.479 31.9566 20.4572 32.057 20.4367C32.3947 20.3676 32.7337 20.3061 33.0733 20.2569C33.1013 20.2528 33.13 20.2474 33.1588 20.2433C33.5196 20.1927 33.8818 20.1571 34.2441 20.1284C34.3445 20.1209 34.445 20.1141 34.5455 20.1079C34.8824 20.0874 35.2187 20.0738 35.5549 20.0724C35.5884 20.0724 35.6219 20.0703 35.6554 20.0703C35.9698 20.071 36.2848 20.0813 36.5985 20.0984C36.699 20.1038 36.7995 20.1127 36.8999 20.1202C37.12 20.136 37.3401 20.1544 37.5595 20.1783C37.6736 20.1913 37.7877 20.205 37.9019 20.22C38.1165 20.2474 38.3304 20.2795 38.5443 20.3157C38.6489 20.3328 38.7534 20.3492 38.8573 20.3683C39.1437 20.4209 39.4294 20.4804 39.713 20.5481C39.739 20.5542 39.7656 20.559 39.7916 20.5652C40.1005 20.6396 40.4074 20.7251 40.7122 20.816C40.8072 20.8447 40.9015 20.8768 40.9958 20.9069C41.2097 20.9745 41.423 21.0463 41.6341 21.1222C41.7408 21.1611 41.8467 21.2001 41.9526 21.2411C42.1618 21.321 42.3695 21.4058 42.5759 21.494C42.6696 21.5336 42.7639 21.5719 42.8575 21.6136C43.1521 21.7455 43.4453 21.8828 43.7344 22.0318C44.698 22.5266 45.6494 23.1404 46.5659 23.8546C46.8755 24.0958 47.1735 24.3494 47.4639 24.6098C47.5576 24.6932 47.6457 24.7813 47.7373 24.8668C47.9314 25.0485 48.1234 25.2324 48.3087 25.4217C48.4098 25.5256 48.5075 25.6315 48.606 25.7375C48.7741 25.9186 48.9388 26.1024 49.0994 26.2904C49.1944 26.4018 49.2887 26.5139 49.3803 26.6273C49.5402 26.8241 49.6947 27.0251 49.8457 27.2287C49.925 27.336 50.0063 27.4413 50.0836 27.55C50.2606 27.8008 50.4301 28.0571 50.5941 28.3161C50.6351 28.381 50.6795 28.4432 50.7198 28.5088C50.9208 28.8355 51.1101 29.1683 51.2898 29.5073C51.337 29.5955 51.3787 29.6871 51.4238 29.7766C51.5523 30.0288 51.6767 30.283 51.7929 30.5407C51.8489 30.6644 51.9008 30.7902 51.9535 30.9159C52.0512 31.1462 52.1448 31.3779 52.233 31.6117C52.2829 31.7456 52.3314 31.8796 52.3786 32.0142C52.4606 32.2507 52.5371 32.4885 52.6096 32.7277C52.6485 32.8583 52.6895 32.9874 52.7258 33.1187C52.8003 33.3872 52.8659 33.6579 52.9281 33.9299C52.952 34.0324 52.9793 34.1343 53.0005 34.2375C53.0798 34.6133 53.1481 34.992 53.2028 35.3727C53.211 35.4287 53.2151 35.4854 53.2226 35.5421C53.2657 35.8654 53.3012 36.1907 53.3272 36.5167C53.3374 36.6466 53.3422 36.7778 53.3491 36.9077C53.3634 37.1633 53.3743 37.4182 53.3778 37.6745C53.3798 37.8214 53.3784 37.9691 53.3771 38.1167C53.3757 38.2288 53.3696 38.3415 53.3655 38.4536C53.36 38.4399 53.3532 38.4276 53.347 38.414C53.7721 39.4364 54.1145 40.5012 54.3619 41.6016L54.392 41.7396C55.8518 34.6427 53.1317 27.2055 47.427 22.7494C47.1817 22.5581 46.9336 22.3742 46.6834 22.1965C46.6581 22.1781 46.6315 22.1617 46.6055 22.1439C46.3807 21.9854 46.1544 21.8316 45.9262 21.6846C45.8961 21.6648 45.8653 21.6477 45.8346 21.6286C45.6104 21.4858 45.3856 21.3477 45.1593 21.2165C45.1211 21.1946 45.0821 21.1748 45.0438 21.1529C44.8409 21.0374 44.6379 20.9233 44.4342 20.8173C45.5086 21.1755 46.5631 21.6204 47.5897 22.1466C52.8522 24.8524 56.7437 29.4465 58.5453 35.0836C59.1693 37.0293 59.5192 39.0557 59.5862 41.1047C59.7119 44.8486 58.8699 48.5932 57.1524 51.9352ZM60.9859 41.0582C60.9134 38.8794 60.5416 36.7259 59.8801 34.6571C57.963 28.6626 53.8261 23.7773 48.2294 20.9021C42.6361 18.0268 36.2541 17.5033 30.2623 19.4341C28.1976 20.0984 26.2307 21.0497 24.4134 22.2615C21.1008 24.4683 18.3841 27.5144 16.5558 31.069C11.1389 41.6098 14.4324 54.5822 24.2166 61.2444C25.0572 61.8178 25.8773 62.3086 26.7241 62.7432C28.0855 63.4431 29.5242 64.0131 31.0018 64.4375C33.1403 65.0512 35.3075 65.3465 37.4515 65.3465C46.0847 65.3465 54.2949 60.5569 58.3963 52.5749C60.2231 49.0217 61.1191 45.04 60.9859 41.0582Z" fill="#3DBBE0"/>
</g>
<path fill-rule="evenodd" clip-rule="evenodd" d="M19.7683 37.6539C21.1147 35.0363 23.0461 32.8397 25.4347 31.1899C26.2309 30.6397 27.0777 30.1504 27.9703 29.7266C30.5072 28.5224 33.2144 27.9422 35.9071 27.9804C37.9267 28.0098 39.9381 28.3878 41.864 29.1122C42.5058 29.3535 43.138 29.6337 43.7585 29.9522C48.4217 32.349 51.7692 36.6465 52.9611 41.7573C52.6221 43.28 52.1095 44.7146 51.437 46.0227C49.7291 49.3449 47.089 51.9324 43.9738 53.5918C43.084 54.0654 42.1552 54.4639 41.1983 54.7817C39.7631 55.258 38.2643 55.5533 36.7389 55.6531C36.2297 55.6859 35.7185 55.6975 35.2052 55.6859C34.692 55.6749 34.1766 55.6415 33.6613 55.5847C33.146 55.5287 32.63 55.4494 32.1154 55.3462C31.6007 55.243 31.0868 55.1166 30.5749 54.9662C29.4636 54.6382 28.4111 54.2199 27.4468 53.7244C22.7829 51.3276 19.4361 47.0307 18.2442 41.9199C18.5832 40.3966 19.0958 38.9627 19.7683 37.6539ZM18.5873 46.8196C18.8217 47.2658 19.0732 47.7019 19.3411 48.127C19.3849 48.1974 19.4313 48.2664 19.4764 48.3361C19.745 48.751 20.0266 49.1569 20.326 49.5492C20.3383 49.5656 20.3492 49.5827 20.3615 49.5984C20.667 49.9955 20.9923 50.3769 21.3279 50.7494C21.3962 50.8252 21.4653 50.9011 21.535 50.9763C21.8705 51.3364 22.2171 51.685 22.5793 52.0185C22.6326 52.067 22.6879 52.1128 22.7413 52.1614C23.0775 52.4634 23.4261 52.7539 23.7842 53.0327C23.8539 53.0867 23.9216 53.1428 23.992 53.1961C24.3822 53.492 24.7868 53.7709 25.2017 54.0374C25.2926 54.0955 25.3848 54.1522 25.4771 54.2096C25.9097 54.4769 26.3498 54.7338 26.8057 54.9683C26.8064 54.9683 26.8064 54.9683 26.8071 54.9689C27.8486 55.5048 28.9838 55.9558 30.1785 56.3085C30.581 56.4274 30.9843 56.5272 31.3889 56.6188C31.4695 56.6365 31.5508 56.6557 31.6322 56.6728C32.0265 56.7561 32.4209 56.8279 32.8159 56.886C32.8801 56.8956 32.9451 56.9031 33.01 56.912C33.3948 56.9639 33.7796 57.0063 34.1643 57.035C34.1978 57.0377 34.2313 57.0418 34.2648 57.0439C34.6721 57.0726 35.0788 57.0849 35.4841 57.0869C35.5545 57.0875 35.6249 57.0875 35.6953 57.0869C36.0964 57.0849 36.4962 57.0733 36.8947 57.0459C36.909 57.0446 36.9241 57.0432 36.9384 57.0418C37.3294 57.0145 37.7176 56.9728 38.1044 56.9215C38.1604 56.914 38.2172 56.9072 38.2732 56.8997C38.6641 56.8436 39.0537 56.7767 39.4398 56.6974C39.4911 56.6871 39.5417 56.6748 39.5929 56.6639C39.9702 56.5832 40.3454 56.493 40.7165 56.3898C40.7363 56.3844 40.7568 56.3796 40.7767 56.3741C41.1594 56.2668 41.538 56.1452 41.9132 56.0139C41.9727 55.9934 42.0321 55.9722 42.0923 55.9504C42.4689 55.815 42.842 55.6708 43.209 55.5123C43.2097 55.5123 43.2097 55.5123 43.2097 55.5123C43.574 55.3544 43.9321 55.1829 44.2861 55.0038C44.3401 54.9765 44.3941 54.9498 44.4474 54.9218C44.7946 54.7414 45.137 54.5514 45.4733 54.3497C45.5177 54.3231 45.5615 54.2951 45.6059 54.2684C45.9244 54.0736 46.2387 53.8707 46.5463 53.6574C46.5764 53.6362 46.6071 53.6164 46.6372 53.5952C46.9577 53.3711 47.2707 53.1346 47.5776 52.8899C47.6337 52.8448 47.6897 52.7997 47.7457 52.7539C48.0533 52.5024 48.3567 52.2441 48.6499 51.9734C48.6499 51.9727 48.6506 51.9727 48.6506 51.9727C48.9404 51.7048 49.2199 51.4239 49.4933 51.1376C49.5452 51.0829 49.5979 51.0289 49.6491 50.9742C49.9143 50.6892 50.1727 50.396 50.4221 50.0939C50.4617 50.0461 50.4993 49.9962 50.5383 49.9484C50.7659 49.6668 50.9859 49.3777 51.1985 49.0818C51.2327 49.0339 51.2682 48.9881 51.3017 48.9403C51.5279 48.6191 51.7439 48.2883 51.9517 47.95C51.9961 47.8775 52.0398 47.8037 52.0836 47.7299C52.292 47.382 52.4936 47.028 52.6809 46.663C52.8593 46.3165 53.0253 45.9605 53.1825 45.5989C53.3384 45.2381 53.4839 44.8697 53.6186 44.4952C53.6603 44.3803 53.6985 44.2642 53.7382 44.148C53.8612 43.7864 53.9747 43.4201 54.0792 43.0483C54.1838 42.6711 54.2801 42.2897 54.3642 41.9022C54.3758 41.8482 54.382 41.7935 54.3929 41.7395L54.3628 41.6015C54.1154 40.5011 53.773 39.4363 53.3479 38.4139C53.1525 37.943 52.9365 37.483 52.7055 37.032C52.6761 36.9745 52.6488 36.9165 52.6187 36.859C52.3822 36.408 52.1273 35.9678 51.8567 35.5386C51.817 35.4751 51.7753 35.4136 51.735 35.3514C51.4555 34.9194 51.1636 34.4964 50.8513 34.089C50.8506 34.0877 50.8499 34.0863 50.8486 34.0856C50.5369 33.6797 50.2048 33.2901 49.861 32.9101C49.8015 32.8438 49.7414 32.7775 49.6813 32.7126C49.3395 32.3449 48.9848 31.9888 48.6144 31.6485C48.572 31.6095 48.5276 31.5733 48.4852 31.5343C48.136 31.2193 47.7738 30.9172 47.3999 30.6281C47.3405 30.5809 47.2817 30.5331 47.2215 30.4873C46.8258 30.1873 46.4164 29.9043 45.9961 29.6344C45.91 29.579 45.8225 29.5257 45.735 29.4717C45.3004 29.2024 44.8575 28.9441 44.3982 28.7083C43.3943 28.1916 42.3609 27.7699 41.3077 27.4412C40.9564 27.3318 40.6031 27.2327 40.2484 27.1439C38.8282 26.7892 37.3799 26.6012 35.9276 26.5807C35.2018 26.5698 34.4746 26.6012 33.7502 26.6744C33.025 26.7475 32.3026 26.8623 31.5857 27.0188C30.1512 27.3325 28.7378 27.813 27.3702 28.4602C26.4072 28.9181 25.4942 29.4457 24.6358 30.039C22.0599 31.8193 19.976 34.1888 18.5244 37.0142C17.9599 38.1091 17.5013 39.2846 17.1527 40.5196C17.0365 40.9317 16.9327 41.35 16.8411 41.7751V41.7764C16.8295 41.8297 16.8233 41.8837 16.8124 41.9377L16.8424 42.0758C17.0885 43.1713 17.4288 44.2314 17.8512 45.2497C18.046 45.7199 18.262 46.1792 18.4923 46.6309C18.5244 46.6931 18.5552 46.7574 18.5873 46.8196Z" fill="#1A1919"/>
<path fill-rule="evenodd" clip-rule="evenodd" d="M27.3839 36.6359C27.5575 36.2983 27.7454 35.9723 27.9484 35.6579C29.3672 33.4572 31.4839 31.8285 34.0085 31.0173C35.1512 30.651 36.3233 30.4692 37.4893 30.4692C39.2697 30.4692 41.0357 30.8929 42.6643 31.7301C45.3605 33.1161 47.3555 35.4679 48.2809 38.3541C48.6287 39.4359 48.8105 40.5452 48.829 41.6503C48.8591 43.4929 48.436 45.3252 47.5701 47.0106C44.7099 52.5765 37.8556 54.7752 32.2896 51.9163C26.725 49.0547 24.525 42.2005 27.3839 36.6359ZM31.6499 53.1602C33.5096 54.1163 35.4971 54.5688 37.4565 54.5688C42.0848 54.5688 46.5586 52.0421 48.8146 47.6503C50.3715 44.6219 50.6558 41.1678 49.6143 37.9262C48.5734 34.6846 46.3331 32.0418 43.304 30.4856C42.3383 29.9894 41.3268 29.6367 40.2955 29.4009C38.6792 29.0312 37.0116 28.984 35.3631 29.2642C34.7651 29.3668 34.1691 29.4966 33.5807 29.6859C30.3384 30.7261 27.6955 32.9671 26.14 35.9955C22.9265 42.247 25.3985 49.9473 31.6499 53.1602Z" fill="#1A1919"/>
<path fill-rule="evenodd" clip-rule="evenodd" d="M75.0613 29.3015C77.2893 29.1935 80.0812 28.9523 80.5377 28.6037C80.6983 28.2811 80.8596 27.6373 80.9396 26.6703C81.0476 25.5166 80.645 24.4696 80.1885 24.2276C79.544 23.9057 78.2557 23.7451 76.7521 24.013C75.5178 24.255 75.0886 26.6703 75.0613 29.3015ZM75.0613 30.5898C75.1959 32.8445 75.7857 34.4287 76.8061 34.724C77.9605 35.0725 80.9129 34.7773 82.5771 34.2674V35.851C81.4228 36.1462 79.4367 36.3608 78.2824 36.3608C74.7394 36.3608 73.1019 34.724 73.1019 29.7307C73.1019 24.6042 74.4168 22.4028 77.8532 22.4028C79.0875 22.4028 81.0476 22.5634 81.6107 22.9393C82.2019 23.3152 83.007 24.8988 82.8731 26.7782C82.7384 28.5764 82.2019 29.5161 81.5041 29.9187C80.779 30.3479 77.2893 30.6971 75.0613 30.5898Z" fill="#1A1919"/>
<path fill-rule="evenodd" clip-rule="evenodd" d="M84.7751 22.5366H86.7892C86.7892 22.5366 88.3461 29.3014 90.0096 33.5695C91.7011 29.3014 93.258 22.5366 93.258 22.5366H95.2714C94.9762 23.9329 92.7208 34.1866 88.5873 41.4072L86.198 41.3805C87.7822 39.0186 89.0432 36.2267 89.0432 36.2267C86.7625 30.9389 84.7751 22.5366 84.7751 22.5366Z" fill="#1A1919"/>
<path fill-rule="evenodd" clip-rule="evenodd" d="M98.5718 29.3015C100.8 29.1935 103.592 28.9523 104.048 28.6037C104.209 28.2811 104.369 27.6373 104.45 26.6703C104.558 25.5166 104.155 24.4696 103.699 24.2276C103.054 23.9057 101.766 23.7451 100.263 24.013C99.0283 24.255 98.5984 26.6703 98.5718 29.3015ZM98.5718 30.5898C98.7057 32.8445 99.2962 34.4287 100.317 34.724C101.47 35.0725 104.423 34.7773 106.088 34.2674V35.851C104.933 36.1462 102.946 36.3608 101.793 36.3608C98.2492 36.3608 96.6123 34.724 96.6123 29.7307C96.6123 24.6042 97.9273 22.4028 101.364 22.4028C102.598 22.4028 104.558 22.5634 105.121 22.9393C105.712 23.3152 106.517 24.8988 106.383 26.7782C106.248 28.5764 105.712 29.5161 105.014 29.9187C104.289 30.3479 100.8 30.6971 98.5718 30.5898Z" fill="#1A1919"/>
<path fill-rule="evenodd" clip-rule="evenodd" d="M112.608 36.2267C110.326 30.9389 108.286 22.5366 108.286 22.5366H110.273C110.273 22.5366 111.857 29.3547 113.521 33.6228C115.212 29.3547 116.796 22.5366 116.796 22.5366H118.782C118.782 22.5366 116.742 30.9389 114.46 36.2267H112.608Z" fill="#1A1919"/>
<path fill-rule="evenodd" clip-rule="evenodd" d="M121.598 36.2268H123.557V22.5367H121.598V36.2268ZM121.598 20.362H123.557V18H121.598V20.362Z" fill="#1A1919"/>
<path fill-rule="evenodd" clip-rule="evenodd" d="M126.777 36.227V23.6913C130.079 21.8125 133.408 22.4296 134.105 22.6442C136.038 23.2621 136.79 25.7314 136.79 29.2743V36.227H134.831V29.3283C134.831 26.8584 134.374 24.3891 133.032 24.0938C132.066 23.8792 130.454 23.7986 128.737 24.4164V36.227H126.777Z" fill="#1A1919"/>
<path fill-rule="evenodd" clip-rule="evenodd" d="M139.875 36.227V23.6913C143.176 21.8125 146.506 22.4296 147.203 22.6442C149.136 23.2621 149.887 25.7314 149.887 29.2743V36.227H147.928V29.3283C147.928 26.8584 147.471 24.3891 146.129 24.0938C145.163 23.8792 143.552 23.7986 141.834 24.4164V36.227H139.875Z" fill="#1A1919"/>
<path fill-rule="evenodd" clip-rule="evenodd" d="M75.8937 45.797H79.1688V47.5151L75.8937 47.3272V54.4405C75.8937 55.5948 75.7857 57.0444 76.3769 57.7155C76.7794 58.1714 77.6652 58.0914 79.3567 57.6615V59.3264C77.0747 59.8629 75.7857 59.7556 75.0613 59.0845C73.8536 58.0374 73.9336 55.8094 73.9336 53.6087V43.193L75.8937 43.0591V45.797Z" fill="#1A1919"/>
<path fill-rule="evenodd" clip-rule="evenodd" d="M82.925 52.5618C85.1523 52.4545 87.9442 52.2132 88.4007 51.864C88.5614 51.5414 88.7233 50.8976 88.8033 49.9312C88.9106 48.7769 88.508 47.7298 88.0515 47.4879C87.4077 47.1667 86.1187 47.0047 84.6158 47.2733C83.3815 47.5152 82.9516 49.9312 82.925 52.5618ZM82.925 53.8501C83.0596 56.1047 83.6494 57.6883 84.6698 57.9842C85.8235 58.3335 88.7766 58.0375 90.4408 57.5277V59.1112C89.2865 59.4065 87.3004 59.6211 86.1461 59.6211C82.6031 59.6211 80.9656 57.9842 80.9656 52.991C80.9656 47.8638 82.2805 45.6631 85.7162 45.6631C86.9512 45.6631 88.9106 45.8244 89.4744 46.2003C90.0656 46.5755 90.87 48.1597 90.7361 50.0385C90.6021 51.8373 90.0656 52.7764 89.3671 53.1796C88.642 53.6088 85.1523 53.9574 82.925 53.8501Z" fill="#1A1919"/>
<path fill-rule="evenodd" clip-rule="evenodd" d="M101.498 59.2452C100.424 59.5138 98.7864 59.6211 97.4441 59.6211C94.1157 59.6211 92.6395 57.9302 92.6395 52.7231C92.6395 47.5152 94.1157 45.6631 97.4441 45.6631C98.7864 45.6631 100.424 45.7704 101.498 46.0383V47.6225C101.498 47.6225 98.7324 46.8174 96.3437 47.2733C94.9748 47.5426 94.5183 49.9312 94.5183 52.7231C94.5183 55.4876 94.9748 57.7156 96.3437 57.9842C98.7324 58.4674 101.498 57.635 101.498 57.635V59.2452Z" fill="#1A1919"/>
<path fill-rule="evenodd" clip-rule="evenodd" d="M103.778 59.4872V40.1874L105.737 40.0261V46.4949C107.992 45.3679 110.408 45.6358 111.106 45.8511C113.039 46.4683 113.79 48.9382 113.79 52.4812V59.4872H111.831V52.5345C111.831 50.0652 111.374 47.596 110.032 47.3007C109.066 47.0861 107.455 47.2734 105.737 47.8912V59.4872H103.778Z" fill="#1A1919"/>
<path fill-rule="evenodd" clip-rule="evenodd" d="M116.874 59.487V46.9513C120.176 45.0725 123.505 45.6897 124.203 45.9043C126.136 46.5214 126.887 48.9914 126.887 52.5343V59.487H124.927V52.5883C124.927 50.1191 124.471 47.6498 123.129 47.3538C122.163 47.1392 120.552 47.0593 118.834 47.6764V59.487H116.874Z" fill="#1A1919"/>
<path fill-rule="evenodd" clip-rule="evenodd" d="M137.434 52.9103C137.434 50.0118 137.032 47.8105 135.69 47.4079C135.019 47.22 133.784 47.1393 132.818 47.2733C131.637 47.8638 131.019 49.7966 131.019 52.5618C131.019 55.4336 131.422 57.501 132.737 57.9036C133.436 58.1182 134.67 58.1715 135.609 58.0375C136.817 57.447 137.434 55.7022 137.434 52.9103ZM139.394 52.7231C139.394 57.9576 137.622 59.6211 134.213 59.6211C130.778 59.6211 129.033 57.9576 129.033 52.7231C129.033 47.4612 130.832 45.6631 134.213 45.6631C137.676 45.6631 139.394 47.4612 139.394 52.7231Z" fill="#1A1919"/>
<path fill-rule="evenodd" clip-rule="evenodd" d="M143.633 59.4872H141.673V40.1874L143.633 40.0261V59.4872Z" fill="#1A1919"/>
<path fill-rule="evenodd" clip-rule="evenodd" d="M154.316 52.9103C154.316 50.0118 153.913 47.8105 152.571 47.4079C151.9 47.22 150.665 47.1393 149.699 47.2733C148.518 47.8638 147.901 49.7966 147.901 52.5618C147.901 55.4336 148.303 57.501 149.618 57.9036C150.317 58.1182 151.551 58.1715 152.49 58.0375C153.698 57.447 154.316 55.7022 154.316 52.9103ZM156.275 52.7231C156.275 57.9576 154.504 59.6211 151.094 59.6211C147.659 59.6211 145.914 57.9576 145.914 52.7231C145.914 47.4612 147.712 45.6631 151.094 45.6631C154.557 45.6631 156.275 47.4612 156.275 52.7231Z" fill="#1A1919"/>
<path fill-rule="evenodd" clip-rule="evenodd" d="M165.803 57.3937V47.7838C164.809 47.1127 162.662 46.978 161.561 47.3539C160.326 47.7838 159.977 50.2797 159.977 52.9377C159.977 55.5149 160.434 57.2051 161.212 57.9036C161.856 58.4941 164.085 58.0915 165.803 57.3937ZM160.971 59.4338C159.037 58.8166 158.018 56.5346 158.018 52.991C158.018 47.1667 159.843 45.6631 163.333 45.6631C165.829 45.6631 167.762 46.5755 167.762 46.5755V57.7156C167.762 62.9228 166.285 64.641 162.957 64.6676C161.856 64.6676 160.192 64.5877 159.119 64.3184V62.6009C159.119 62.6009 162.394 63.4873 164.621 63.0041C165.32 62.6549 165.668 61.0706 165.803 58.7893C163.547 59.917 161.669 59.6477 160.971 59.4338Z" fill="#1A1919"/>
<path fill-rule="evenodd" clip-rule="evenodd" d="M169.504 45.7971H171.518C171.518 45.7971 173.075 52.5618 174.739 56.8293C176.43 52.5618 177.987 45.7971 177.987 45.7971H180C179.705 47.1934 177.45 57.4471 173.317 64.6677L170.927 64.641C172.511 62.2791 173.772 59.4872 173.772 59.4872C171.491 54.1994 169.504 45.7971 169.504 45.7971Z" fill="#1A1919"/>
</svg>
