<svg width="128" height="128" viewBox="0 0 128 128" fill="none" xmlns="http://www.w3.org/2000/svg">
<g clip-path="url(#clip0_541_1918)">
<path fill-rule="evenodd" clip-rule="evenodd" d="M117 73.204L103.24 64L117 54.796V73.204ZM69.5 112.22V86.568L93.348 70.62L112.596 83.492L69.5 112.22ZM64 77.012L44.548 64L64 50.988L83.456 64L64 77.012ZM58.5 112.22L15.404 83.492L34.656 70.62L58.5 86.568V112.22ZM11 54.796L24.764 64L11 73.204V54.796ZM58.5 15.78V41.432L34.656 57.384L15.404 44.508L58.5 15.78ZM69.5 15.78L112.596 44.508L93.348 57.384L69.5 41.432V15.78ZM127.952 43.784C127.94 43.7 127.92 43.624 127.908 43.544C127.88 43.388 127.852 43.232 127.812 43.084C127.788 42.992 127.752 42.904 127.724 42.816C127.68 42.68 127.636 42.548 127.584 42.416C127.548 42.324 127.504 42.232 127.46 42.148C127.404 42.02 127.344 41.9 127.272 41.784C127.224 41.696 127.168 41.612 127.116 41.528C127.044 41.412 126.968 41.3 126.884 41.192C126.824 41.112 126.76 41.032 126.696 40.956C126.608 40.852 126.516 40.752 126.42 40.656C126.348 40.584 126.28 40.508 126.204 40.444C126.1 40.352 125.996 40.264 125.892 40.18C125.808 40.116 125.728 40.052 125.644 39.992C125.612 39.972 125.584 39.944 125.552 39.924L67.052 0.924C65.204 -0.308 62.8 -0.308 60.948 0.924L2.452 39.924C2.42 39.944 2.392 39.972 2.36 39.992C2.272 40.052 2.192 40.116 2.112 40.18C2.004 40.264 1.9 40.352 1.8 40.444C1.724 40.508 1.652 40.584 1.58 40.656C1.484 40.752 1.392 40.852 1.308 40.956C1.24 41.032 1.176 41.112 1.116 41.192C1.036 41.3 0.96 41.412 0.888 41.528C0.832 41.612 0.78 41.696 0.728 41.784C0.66 41.9 0.6 42.02 0.54 42.148C0.5 42.232 0.456 42.324 0.42 42.416C0.364 42.548 0.32 42.68 0.276 42.816C0.248 42.904 0.216 42.992 0.192 43.084C0.152 43.232 0.124 43.388 0.096 43.544C0.08 43.624 0.06 43.7 0.052 43.784C0.02 44.016 0 44.256 0 44.5V83.5C0 83.74 0.02 83.98 0.052 84.22C0.06 84.296 0.08 84.376 0.096 84.456C0.124 84.612 0.152 84.764 0.192 84.916C0.216 85.008 0.248 85.096 0.276 85.184C0.32 85.316 0.364 85.452 0.42 85.588C0.456 85.676 0.5 85.764 0.54 85.852C0.6 85.976 0.66 86.096 0.728 86.22C0.78 86.304 0.832 86.388 0.888 86.472C0.96 86.588 1.036 86.696 1.116 86.804C1.176 86.888 1.24 86.968 1.308 87.044C1.392 87.144 1.484 87.248 1.58 87.34C1.652 87.416 1.724 87.488 1.8 87.556C1.9 87.648 2.004 87.736 2.112 87.82C2.192 87.884 2.272 87.948 2.36 88.008C2.392 88.028 2.42 88.056 2.452 88.076L60.948 127.076C61.872 127.692 62.936 128 64 128C65.064 128 66.128 127.692 67.052 127.076L125.552 88.076C125.584 88.056 125.612 88.028 125.644 88.008C125.728 87.948 125.808 87.884 125.892 87.82C125.996 87.736 126.1 87.648 126.204 87.556C126.28 87.488 126.348 87.416 126.42 87.34C126.516 87.248 126.608 87.144 126.696 87.044C126.76 86.968 126.824 86.888 126.884 86.804C126.968 86.696 127.044 86.588 127.116 86.472C127.168 86.388 127.224 86.304 127.272 86.22C127.344 86.096 127.404 85.976 127.46 85.852C127.504 85.764 127.548 85.676 127.584 85.588C127.636 85.452 127.68 85.316 127.724 85.184C127.752 85.096 127.788 85.008 127.812 84.916C127.852 84.764 127.88 84.612 127.908 84.456C127.92 84.376 127.94 84.296 127.952 84.22C127.984 83.98 128 83.74 128 83.5V44.5C128 44.256 127.984 44.016 127.952 43.784Z" fill="white"/>
</g>
<defs>
<clipPath id="clip0_541_1918">
<rect width="128" height="128" fill="white"/>
</clipPath>
</defs>
</svg>
