<svg width="57" height="57" viewBox="0 0 57 57" fill="none" xmlns="http://www.w3.org/2000/svg">
<path fill-rule="evenodd" clip-rule="evenodd" d="M28.3402 5.21924C14.7392 5.21924 3.71021 16.2459 3.71021 29.8491C3.71021 40.7312 10.7675 49.9636 20.5537 53.2205C21.7845 53.4484 22.2366 52.6859 22.2366 52.0355C22.2366 51.4485 22.2139 49.5079 22.2032 47.4498C15.3511 48.9399 13.9053 44.5438 13.9053 44.5438C12.7848 41.6971 11.1707 40.9399 11.1707 40.9399C8.93575 39.4112 11.3391 39.4427 11.3391 39.4427C13.8121 39.6164 15.1146 41.9813 15.1146 41.9813C17.3113 45.7464 20.8764 44.6577 22.2821 44.0284C22.5032 42.4367 23.1412 41.3499 23.8458 40.7349C18.3751 40.1123 12.624 38.0001 12.624 28.5626C12.624 25.8738 13.5863 23.6766 15.162 21.9517C14.9063 21.3311 14.0631 18.8261 15.4006 15.4333C15.4006 15.4333 17.469 14.7718 22.1753 17.9584C24.1401 17.4126 26.2472 17.1389 28.3403 17.1294C30.4333 17.1389 32.542 17.4126 34.5103 17.9584C39.2115 14.7718 41.2769 15.4333 41.2769 15.4333C42.6175 18.8261 41.7743 21.3311 41.5186 21.9517C43.0979 23.6766 44.0533 25.8737 44.0533 28.5626C44.0533 38.0228 38.2915 40.1054 32.8068 40.7153C33.6902 41.4797 34.4772 42.9786 34.4772 45.2764C34.4772 48.5719 34.449 51.2242 34.449 52.0355C34.449 52.6911 34.8922 53.4592 36.1405 53.2174C45.9217 49.9569 52.9701 40.7277 52.9701 29.8491C52.9701 16.2459 41.9426 5.21924 28.3402 5.21924Z" fill="white"/>
<path d="M13.0391 40.5822C12.9849 40.7049 12.7921 40.7416 12.6168 40.6576C12.438 40.5772 12.3381 40.4103 12.3958 40.2876C12.4488 40.1616 12.6414 40.1266 12.8199 40.2107C12.9988 40.2912 13.1009 40.4595 13.0391 40.5822Z" fill="white"/>
<path d="M14.0367 41.6952C13.9193 41.8038 13.6893 41.7533 13.5335 41.5813C13.3722 41.4095 13.3424 41.1796 13.4616 41.0694C13.5827 40.9606 13.8054 41.0115 13.9666 41.1833C14.128 41.357 14.1594 41.5849 14.0367 41.6952Z" fill="white"/>
<path d="M15.0078 43.1135C14.8568 43.2186 14.6099 43.1201 14.4573 42.9011C14.3063 42.682 14.3063 42.4193 14.4608 42.314C14.6134 42.2089 14.8569 42.3036 15.0114 42.5208C15.162 42.7436 15.1619 43.0064 15.0078 43.1135Z" fill="white"/>
<path d="M16.3383 44.4841C16.2032 44.633 15.9155 44.5927 15.7053 44.3896C15.4898 44.1912 15.4301 43.9094 15.5651 43.7604C15.7022 43.6114 15.9913 43.6531 16.2031 43.8547C16.417 44.053 16.482 44.3366 16.3383 44.4841Z" fill="white"/>
<path d="M18.1735 45.2797C18.1138 45.4724 17.837 45.5601 17.5581 45.4781C17.2793 45.3936 17.0974 45.1678 17.1535 44.973C17.2112 44.7787 17.4895 44.6875 17.7703 44.7751C18.0488 44.8591 18.2312 45.0833 18.1735 45.2797Z" fill="white"/>
<path d="M20.1893 45.4273C20.196 45.6304 19.9594 45.7989 19.6667 45.8025C19.3723 45.8092 19.1337 45.6448 19.1306 45.4448C19.1306 45.2396 19.3619 45.0731 19.6564 45.068C19.9491 45.0624 20.1893 45.2257 20.1893 45.4273Z" fill="white"/>
<path d="M22.065 45.1083C22.1 45.3063 21.8963 45.5098 21.6055 45.564C21.3196 45.6166 21.0552 45.4939 21.0186 45.2975C20.9832 45.0944 21.1902 44.8909 21.4759 44.8383C21.7671 44.7877 22.0279 44.9067 22.065 45.1083Z" fill="white"/>
</svg>
