<svg width="600" height="600" viewBox="0 0 600 600" fill="none" xmlns="http://www.w3.org/2000/svg">
<path d="M300 44C230.474 44 221.756 44.2947 194.451 45.5405C167.203 46.7844 148.593 51.1113 132.309 57.4401C115.475 63.9824 101.198 72.7358 86.9665 86.9676C72.7348 101.199 63.9813 115.476 57.4391 132.31C51.1103 148.593 46.7833 167.203 45.5395 194.451C44.2937 221.756 44 230.474 44 300C44 369.524 44.2937 378.242 45.5395 405.547C46.7833 432.795 51.1103 451.405 57.4391 467.688C63.9813 484.522 72.7348 498.799 86.9665 513.032C101.198 527.263 115.475 536.017 132.309 542.559C148.593 548.887 167.203 553.215 194.451 554.458C221.756 555.704 230.474 555.998 300 555.998C369.524 555.998 378.242 555.704 405.547 554.458C432.795 553.215 451.405 548.887 467.688 542.559C484.522 536.017 498.799 527.263 513.032 513.032C527.263 498.799 536.017 484.522 542.559 467.688C548.887 451.405 553.215 432.795 554.458 405.547C555.704 378.242 555.998 369.524 555.998 300C555.998 230.474 555.704 221.756 554.458 194.451C553.215 167.203 548.887 148.593 542.559 132.31C536.017 115.476 527.263 101.199 513.032 86.9676C498.799 72.7358 484.522 63.9824 467.688 57.4401C451.405 51.1113 432.795 46.7844 405.547 45.5405C378.242 44.2947 369.524 44 300 44ZM300 90.1269C368.354 90.1269 376.451 90.387 403.445 91.6187C428.404 92.7578 441.959 96.9283 450.98 100.433C462.929 105.077 471.457 110.625 480.415 119.583C489.374 128.541 494.921 137.07 499.565 149.018C503.071 158.039 507.241 171.594 508.38 196.554C509.611 223.548 509.872 231.645 509.872 300C509.872 368.354 509.611 376.451 508.38 403.445C507.241 428.404 503.071 441.959 499.565 450.98C494.921 462.929 489.374 471.457 480.415 480.415C471.457 489.374 462.929 494.921 450.98 499.565C441.959 503.071 428.404 507.241 403.445 508.38C376.455 509.611 368.359 509.872 300 509.872C231.639 509.872 223.545 509.611 196.554 508.38C171.594 507.241 158.039 503.071 149.018 499.565C137.069 494.921 128.541 489.374 119.582 480.415C110.624 471.457 105.076 462.929 100.433 450.98C96.9272 441.959 92.7568 428.404 91.6177 403.445C90.386 376.451 90.1259 368.354 90.1259 300C90.1259 231.645 90.386 223.548 91.6177 196.554C92.7568 171.594 96.9272 158.039 100.433 149.018C105.076 137.07 110.624 128.541 119.582 119.583C128.541 110.625 137.069 105.077 149.018 100.433C158.039 96.9283 171.594 92.7578 196.554 91.6187C223.548 90.387 231.645 90.1269 300 90.1269Z" fill="white"/>
<path d="M300 385.332C252.871 385.332 214.666 347.127 214.666 300C214.666 252.871 252.871 214.666 300 214.666C347.127 214.666 385.332 252.871 385.332 300C385.332 347.127 347.127 385.332 300 385.332ZM300 168.54C227.396 168.54 168.54 227.396 168.54 300C168.54 372.602 227.396 431.458 300 431.458C372.602 431.458 431.458 372.602 431.458 300C431.458 227.396 372.602 168.54 300 168.54Z" fill="white"/>
<path d="M467.372 163.346C467.372 180.313 453.618 194.066 436.652 194.066C419.687 194.066 405.932 180.313 405.932 163.346C405.932 146.38 419.687 132.627 436.652 132.627C453.618 132.627 467.372 146.38 467.372 163.346Z" fill="white"/>
</svg>
