<svg width="512" height="512" viewBox="0 0 512 512" fill="none" xmlns="http://www.w3.org/2000/svg">
<g clip-path="url(#clip0_541_1933)">
<path d="M473.305 -1.35303C494.185 -1.35303 511.19 15.18 511.19 35.573V473.824C511.19 494.217 494.185 510.778 473.305 510.778H36.846C16.007 510.778 -0.927002 494.217 -0.927002 473.824V35.573C-0.927002 15.18 16.007 -1.35303 36.846 -1.35303H473.305ZM435.476 435.036V301.002C435.476 235.18 421.264 184.575 344.356 184.575C307.401 184.575 282.617 204.838 272.489 224.051H271.449V190.64H198.638V435.036H274.504V314.158C274.504 282.275 280.535 251.385 320.058 251.385C359.039 251.385 359.526 287.846 359.526 316.187V435.036H435.476ZM150.987 190.64H74.953V435.036H150.987V190.64ZM112.99 69.151C88.595 69.151 68.924 88.886 68.924 113.198C68.924 137.516 88.595 157.25 112.99 157.25C137.289 157.25 157.016 137.516 157.016 113.198C157.016 88.886 137.289 69.151 112.99 69.151Z" fill="white"/>
</g>
<defs>
<clipPath id="clip0_541_1933">
<rect width="512" height="512" fill="white"/>
</clipPath>
</defs>
</svg>
