<svg width="512" height="512" viewBox="0 0 512 512" fill="none" xmlns="http://www.w3.org/2000/svg">
<path d="M501.303 132.765C495.416 110.735 478.068 93.388 456.038 87.5C416.106 76.8 256 76.8 256 76.8C256 76.8 95.893 76.8 55.961 87.5C33.935 93.388 16.584 110.735 10.697 132.765C0 172.693 0 256.003 0 256.003C0 256.003 0 339.311 10.697 379.235C16.584 401.265 33.935 418.617 55.961 424.504C95.893 435.2 256 435.2 256 435.2C256 435.2 416.106 435.2 456.038 424.504C478.068 418.617 495.416 401.265 501.303 379.235C511.999 339.311 511.999 256.003 511.999 256.003C511.999 256.003 511.999 172.693 501.303 132.765ZM204.797 332.804V179.201L337.816 256.003L204.797 332.804Z" fill="white"/>
</svg>
